<svg xmlns="http://www.w3.org/2000/svg" xmlns:xlink="http://www.w3.org/1999/xlink" width="198.143" height="167.931" viewBox="0 0 198.143 167.931"><defs><style>.a{fill:none;}.b{fill:#161615;}.c{clip-path:url(#a);}.d{fill:#005fab;}.e{fill:#0060ac;}.f{fill:#0061ad;}.g{fill:#0062ae;}.h{fill:#0063af;}.i{fill:#0064b0;}.j{fill:#0065b0;}.k{fill:#0065b1;}.l{fill:#0066b1;}.m{fill:#0066b2;}.n{fill:#0067b2;}.o{fill:#0067b3;}.p{fill:#0068b3;}.q{fill:#0069b4;}.r{fill:#006ab5;}.s{fill:#006bb6;}.t{fill:#006bb7;}.u{fill:#006cb7;}.v{fill:#006cb8;}.w{fill:#006db8;}.x{fill:#006eb9;}.y{fill:#006fba;}.z{fill:#0070bb;}.aa{fill:#0071bc;}.ab{fill:#0072bd;}.ac{fill:#0073be;}.ad{clip-path:url(#b);}.ae{clip-path:url(#c);}.af{fill:#52c0f2;}.ag{fill:#51bff1;}.ah{fill:#4fbff1;}.ai{fill:#4dbef1;}.aj{fill:#4bbef1;}.ak{fill:#49bdf1;}.al{fill:#48bdf1;}.am{fill:#46bcf0;}.an{fill:#44bcf0;}.ao{fill:#42bbf0;}.ap{fill:#40bbf0;}.aq{fill:#3ebaf0;}.ar{fill:#3cbaf0;}.as{fill:#3abaf0;}.at{fill:#38b9ef;}.au{fill:#36b9ef;}.av{fill:#33b8ef;}.aw{fill:#31b8ef;}.ax{fill:#2fb7ef;}.ay{fill:#2cb7ef;}.az{fill:#2ab6ee;}.ba{fill:#27b6ee;}.bb{fill:#25b5ee;}.bc{fill:#22b5ee;}.bd{fill:#1fb4ee;}.be{fill:#1bb4ee;}.bf{fill:#18b4ee;}.bg{fill:#14b3ed;}.bh{fill:#0fb3ed;}.bi{fill:#08b2ed;}.bj{fill:#00b2ed;}.bk{fill:#00b1ed;}.bl{fill:#00b0ec;}.bm{fill:#00afec;}.bn{fill:#00aeec;}.bo{fill:#00aeeb;}.bp{fill:#00adeb;}.bq{fill:#00aceb;}.br{fill:#00abeb;}.bs{fill:#00abea;}.bt{fill:#00aaea;}.bu{fill:#00a9ea;}.bv{fill:#00a8e9;}.bw{fill:#00a7e9;}.bx{fill:#00a6e9;}.by{fill:#00a5e8;}.bz{fill:#00a4e8;}.ca{fill:#00a3e8;}.cb{fill:#00a3e7;}.cc{fill:#00a2e7;}.cd{fill:#00a1e7;}.ce{fill:#00a1e6;}.cf{fill:#00a0e6;}.cg{fill:#009fe6;}.ch{fill:#009ee5;}.ci{fill:#009de5;}.cj{fill:#009ce5;}.ck{fill:#009ce4;}.cl{fill:#009be4;}.cm{fill:#009ae4;}.cn{fill:#009ae3;}.co{fill:#0099e3;}.cp{fill:#0098e3;}.cq{fill:#0098e2;}.cr{fill:#0097e2;}.cs{fill:#0096e2;}.ct{fill:#0096e1;}.cu{fill:#0095e1;}.cv{fill:#0094e1;}.cw{fill:#0094e0;}.cx{fill:#0093e0;}.cy{fill:#0092e0;}.cz{fill:#0092df;}.da{fill:#0091df;}.db{fill:#0090df;}.dc{fill:#0090de;}.dd{fill:#008fdd;}.de{fill:#008edc;}.df{fill:#008ddb;}.dg{fill:#008cda;}.dh{fill:#008cd9;}.di{fill:#008bd9;}.dj{fill:#008bd8;}.dk{fill:#008ad8;}.dl{fill:#008ad7;}.dm{fill:#0089d7;}.dn{fill:#0089d6;}.do{fill:#0088d6;}.dp{fill:#0088d5;}.dq{fill:#0087d5;}.dr{fill:#0087d4;}.ds{fill:#0086d4;}.dt{fill:#0086d3;}.du{fill:#0085d2;}.dv{fill:#0084d1;}.dw{fill:#0083d0;}.dx{fill:#0083cf;}.dy{fill:#0082cf;}.dz{fill:#0081ce;}.ea{fill:#0081cd;}.eb{fill:#0080cd;}.ec{fill:#0080cc;}.ed{fill:#007fcc;}.ee{fill:#007fcb;}.ef{fill:#007ecb;}.eg{fill:#007eca;}.eh{fill:#007dca;}.ei{fill:#007dc9;}.ej{fill:#007cc9;}.ek{fill:#007cc8;}.el{fill:#007bc8;}.em{fill:#007bc7;}.en{fill:#007ac7;}.eo{fill:#007ac6;}.ep{fill:#0079c5;}.eq{fill:#0078c5;}.er{fill:#0078c4;}.es{fill:#0077c3;}.et{fill:#0076c3;}.eu{fill:#0076c2;}.ev{fill:#0075c1;}.ew{fill:#0074c0;}.ex{fill:#0073c0;}.ey{fill:#0073bf;}.ez{fill:#0072be;}.fa{fill:#0071be;}.fb{fill:#0071bd;}.fc{fill:#0070bd;}.fd{fill:#0070bc;}.fe{fill:#006fbb;}.ff{fill:#006eba;}.fg{fill:#006dba;}.fh{fill:#006db9;}.fi{fill:#006ab6;}.fj{fill:#0069b5;}.fk{fill:#0068b4;}.fl{fill:#0060ad;}.fm{fill:#005fac;}.fn{clip-path:url(#d);}.fo{clip-path:url(#e);}.fp{fill:#464545;}</style><clipPath id="a"><path class="a" d="M329.021,234.461,345.685,239l-13.111,7.991-8.862-8.544Z" transform="translate(-323.713 -234.461)"/></clipPath><clipPath id="b"><path class="a" d="M339.361,197.979l-35.01,0-9.922,7.976.887.881h38.87l5.175-8.081Z" transform="translate(-294.429 -197.975)"/></clipPath><clipPath id="c"><path class="a" d="M341.239,156.6l-4.36,10.9s-31.06-.642-47.952,19.932l-8.174-8.124S302.368,154.237,341.239,156.6Z" transform="translate(-280.753 -156.442)"/></clipPath><clipPath id="d"><path class="a" d="M310.41,214.147l7.629,7.81s5.992-9.083,25.246-12.714l4.179-11.262S328.937,197.254,310.41,214.147Z" transform="translate(-310.41 -197.976)"/></clipPath><clipPath id="e"><path class="a" d="M339.383,250.428l7.993,8.538,5.63-15.985S348.647,244.07,339.383,250.428Z" transform="translate(-339.383 -242.981)"/></clipPath></defs><g transform="translate(-191.214 -143.118)"><g transform="translate(191.214 254.183)"><g transform="translate(0 1.683)"><path d="M215.749,393.185l-19.612-27.747v27.229h-4.922V354.712h2.073l19.094,26.245V354.712H217.3v38.473Z" transform="translate(-191.214 -354.712)"/></g><g transform="translate(31.659 11.373)"><path d="M275.812,387.767h-20q0,4.873,2.668,7.488a8.353,8.353,0,0,0,6.062,2.282,10.341,10.341,0,0,0,7.047-2.462l2.073,3.549a9.267,9.267,0,0,1-3.5,1.969,18.9,18.9,0,0,1-6.581,1.089,12.275,12.275,0,0,1-8.886-3.549q-4.068-3.912-4.068-10.518,0-6.865,4.172-11.011a12.11,12.11,0,0,1,8.834-3.7q5.932,0,9.3,3.341a11.425,11.425,0,0,1,3.264,8.524A11,11,0,0,1,275.812,387.767Zm-11.944-10.725a7.778,7.778,0,0,0-7.928,7.151H271.3a7,7,0,0,0-1.865-4.975A7.28,7.28,0,0,0,263.868,377.042Z" transform="translate(-250.629 -372.897)"/></g><g transform="translate(59.225 11.891)"><path d="M322.44,401.616l-7.565-10.1-6.762,10.1h-5.751l10.078-14.2-9.249-13.549h5.543l6.218,9.533,6.969-9.533h5.441l-10.079,13.549,11.037,14.2Z" transform="translate(-302.362 -373.869)"/></g><g transform="translate(87.543 4.196)"><path d="M358.717,371.008h-3.212v-3.885h3.212v-5.8l4.923-1.892v7.695h7.617v3.885H363.64v13.783q0,3.5,1.179,4.975a4.569,4.569,0,0,0,3.8,1.478,9.1,9.1,0,0,0,3.913-.96l.725,4.326a27.189,27.189,0,0,1-6.71.777,7.278,7.278,0,0,1-5.558-2.449,8.735,8.735,0,0,1-2.267-6.178Z" transform="translate(-355.505 -359.428)"/></g><g transform="translate(111.146)"><path d="M399.8,353.107l6.476-1.554v31.193q0,5.128,3.056,6.114a5.319,5.319,0,0,1-5.129,2.85q-4.4,0-4.4-6.114Z" transform="translate(-399.8 -351.553)"/></g><g transform="translate(123.865 1.139)"><path d="M427.219,392.19V369.754H423.67v-5.311h10.1V392.19Zm3.342-38.5a3.759,3.759,0,1,1-2.655,1.1A3.62,3.62,0,0,1,430.561,353.691Z" transform="translate(-423.67 -353.691)"/></g><g transform="translate(141.508 11.373)"><path d="M474.632,401.162V385.125q0-3.55-1.36-5.182t-4.442-1.632a6.882,6.882,0,0,0-3.044.8,7.016,7.016,0,0,0-2.526,2v20.052h-6.477V373.415h4.663l1.192,2.59q2.643-3.108,7.8-3.108a10.348,10.348,0,0,1,7.811,2.966q2.862,2.968,2.862,8.278v17.021Z" transform="translate(-456.781 -372.897)"/></g><g transform="translate(171.017 11.373)"><path d="M538.742,389.27H518.923a7.034,7.034,0,0,0,2.28,5.156,8.264,8.264,0,0,0,5.647,1.839q4.431,0,6.736-2.306l2.514,4.95q-3.42,2.773-10.208,2.771-6.349,0-10.04-3.717t-3.692-10.376a14.389,14.389,0,0,1,4.055-10.622,14.221,14.221,0,0,1,19.418-.467,12.333,12.333,0,0,1,3.653,9.171A18.081,18.081,0,0,1,538.742,389.27ZM519.156,384.4h13.628q-.675-6.088-6.737-6.088Q520.5,378.312,519.156,384.4Z" transform="translate(-512.16 -372.897)"/></g></g><g transform="translate(198.66 303.453)"><g transform="translate(0 0.224)"><path class="b" d="M208.494,445.331v6.381H207.5v-6.381h-2.314v-.893h5.724v.893Z" transform="translate(-205.188 -444.438)"/></g><g transform="translate(9.954 2.08)"><path class="b" d="M228.694,450.772h-3.833a1.92,1.92,0,0,0,.512,1.435,1.6,1.6,0,0,0,1.162.436,1.983,1.983,0,0,0,1.35-.471l.4.68a1.8,1.8,0,0,1-.67.378,3.636,3.636,0,0,1-1.261.208,2.35,2.35,0,0,1-1.7-.68,2.664,2.664,0,0,1-.78-2.016,2.842,2.842,0,0,1,.8-2.11,2.32,2.32,0,0,1,1.693-.71,2.421,2.421,0,0,1,1.782.64,2.192,2.192,0,0,1,.625,1.634A2.116,2.116,0,0,1,228.694,450.772Zm-2.289-2.056a1.49,1.49,0,0,0-1.519,1.371h2.944a1.343,1.343,0,0,0-.358-.953A1.4,1.4,0,0,0,226.4,448.716Z" transform="translate(-223.868 -447.922)"/></g><g transform="translate(21.005 0)"><path class="b" d="M244.607,450.011v-5.993h.943v5.833a.91.91,0,0,0,.246.672.874.874,0,0,0,.643.247v.843Q244.607,451.614,244.607,450.011Z" transform="translate(-244.607 -444.018)"/></g><g transform="translate(28.665 2.08)"><path class="b" d="M263.809,450.772h-3.833a1.92,1.92,0,0,0,.512,1.435,1.6,1.6,0,0,0,1.162.436,1.984,1.984,0,0,0,1.35-.471l.4.68a1.8,1.8,0,0,1-.67.378,3.635,3.635,0,0,1-1.261.208,2.35,2.35,0,0,1-1.7-.68,2.666,2.666,0,0,1-.78-2.016,2.842,2.842,0,0,1,.8-2.11,2.319,2.319,0,0,1,1.693-.71,2.421,2.421,0,0,1,1.782.64,2.193,2.193,0,0,1,.626,1.634A2.116,2.116,0,0,1,263.809,450.772Zm-2.289-2.056A1.49,1.49,0,0,0,260,450.086h2.944a1.343,1.343,0,0,0-.358-.953A1.4,1.4,0,0,0,261.52,448.716Z" transform="translate(-258.983 -447.922)"/></g><g transform="translate(39.294 2.08)"><path class="b" d="M283.289,448.453l-.467.665a1.4,1.4,0,0,0-.509-.273,2.133,2.133,0,0,0-.717-.129,1.511,1.511,0,0,0-1.221.538,2.232,2.232,0,0,0-.452,1.478,2,2,0,0,0,.462,1.422,1.676,1.676,0,0,0,1.28.489,2.109,2.109,0,0,0,1.281-.491l.372.794a3.384,3.384,0,0,1-1.881.492,2.4,2.4,0,0,1-1.8-.731,2.709,2.709,0,0,1-.71-1.975,2.828,2.828,0,0,1,.737-2.041,2.816,2.816,0,0,1,2.912-.6A2.559,2.559,0,0,1,283.289,448.453Z" transform="translate(-278.93 -447.922)"/></g><g transform="translate(49.411 2.08)"><path class="b" d="M297.918,450.667a2.905,2.905,0,0,1,.663-1.989,2.456,2.456,0,0,1,3.517-.03,3.526,3.526,0,0,1-.015,4.047,2.459,2.459,0,0,1-3.53-.007A3.02,3.02,0,0,1,297.918,450.667Zm.993,0q0,2,1.415,2a1.2,1.2,0,0,0,1.035-.536,2.518,2.518,0,0,0,.375-1.464q0-1.976-1.41-1.976a1.213,1.213,0,0,0-1.03.526A2.415,2.415,0,0,0,298.911,450.667Z" transform="translate(-297.918 -447.922)"/></g><g transform="translate(60.299 2.08)"><path class="b" d="M324.505,453.339v-3.367q0-1.257-1.087-1.257a1.086,1.086,0,0,0-.641.211,1.109,1.109,0,0,0-.407.48v3.933h-.943V449.56a.738.738,0,0,0-.3-.619,1.258,1.258,0,0,0-.782-.225,1.086,1.086,0,0,0-.6.219,1.329,1.329,0,0,0-.454.482v3.922h-.943v-5.318h.615l.313.616a1.655,1.655,0,0,1,1.365-.715,1.753,1.753,0,0,1,1.6.71,1.22,1.22,0,0,1,.59-.507,2.07,2.07,0,0,1,.889-.2,1.653,1.653,0,0,1,1.276.488,1.95,1.95,0,0,1,.451,1.374v3.555Z" transform="translate(-318.35 -447.922)"/></g><g transform="translate(73.772 2.179)"><path class="b" d="M344.578,448.107V451.5q0,1.232,1.067,1.231a1.473,1.473,0,0,0,.854-.267,1.291,1.291,0,0,0,.512-.621v-3.733h.943v5.318h-.943v-.736a1.477,1.477,0,0,1-.638.573,1.952,1.952,0,0,1-.936.261,1.734,1.734,0,0,1-1.338-.5,2.02,2.02,0,0,1-.464-1.425v-3.491Z" transform="translate(-343.635 -448.107)"/></g><g transform="translate(84.46 2.08)"><path class="b" d="M366.966,453.339v-3.094a2.054,2.054,0,0,0-.256-1.189,1,1,0,0,0-.856-.339,1.4,1.4,0,0,0-.675.193,1.507,1.507,0,0,0-.541.477v3.953h-.943v-5.318h.645l.3.686a1.635,1.635,0,0,1,1.525-.785q1.747,0,1.747,2.125v3.292Z" transform="translate(-363.694 -447.922)"/></g><g transform="translate(94.826 0.168)"><path class="b" d="M383.877,451.663v-4.524h-.73v-.794h1.673v5.318Zm.516-7.329a.583.583,0,1,1,0,1.166.559.559,0,0,1-.41-.172.565.565,0,0,1-.171-.414.578.578,0,0,1,.581-.581Z" transform="translate(-383.147 -444.334)"/></g><g transform="translate(102.734 2.08)"><path class="b" d="M402.348,448.453l-.467.665a1.4,1.4,0,0,0-.508-.273,2.136,2.136,0,0,0-.718-.129,1.511,1.511,0,0,0-1.221.538,2.232,2.232,0,0,0-.452,1.478,2,2,0,0,0,.462,1.422,1.677,1.677,0,0,0,1.281.489,2.109,2.109,0,0,0,1.28-.491l.372.794a3.386,3.386,0,0,1-1.882.492,2.4,2.4,0,0,1-1.8-.731,2.713,2.713,0,0,1-.71-1.975,2.826,2.826,0,0,1,.737-2.041,2.815,2.815,0,0,1,2.912-.6A2.561,2.561,0,0,1,402.348,448.453Z" transform="translate(-397.989 -447.922)"/></g><g transform="translate(112.926 2.08)"><path class="b" d="M420.392,452.727a2.079,2.079,0,0,1-1.733.71,1.489,1.489,0,0,1-1.085-.456,1.523,1.523,0,0,1-.459-1.128,1.689,1.689,0,0,1,.708-1.369,2.823,2.823,0,0,1,1.8-.558,2.111,2.111,0,0,1,.675.129q0-1.291-1.152-1.291a1.837,1.837,0,0,0-1.36.476l-.4-.79a2.345,2.345,0,0,1,.742-.376,2.9,2.9,0,0,1,.906-.155,1.9,1.9,0,0,1,2.2,2.2v1.906a.976.976,0,0,0,.417.934v.472a1.779,1.779,0,0,1-.861-.164A.928.928,0,0,1,420.392,452.727Zm-.09-2a3.364,3.364,0,0,0-.626-.1,1.784,1.784,0,0,0-1.167.368,1.089,1.089,0,0,0-.451.867q0,.829.978.83a1.606,1.606,0,0,0,1.266-.68Z" transform="translate(-417.115 -447.922)"/></g><g transform="translate(123.277 2.08)"><path class="b" d="M440.9,448.453l-.466.665a1.409,1.409,0,0,0-.509-.273,2.139,2.139,0,0,0-.718-.129,1.51,1.51,0,0,0-1.221.538,2.232,2.232,0,0,0-.452,1.478,2,2,0,0,0,.461,1.422,1.678,1.678,0,0,0,1.282.489,2.11,2.11,0,0,0,1.28-.491l.372.794a3.385,3.385,0,0,1-1.882.492,2.4,2.4,0,0,1-1.8-.731,2.711,2.711,0,0,1-.71-1.975,2.826,2.826,0,0,1,.737-2.041,2.815,2.815,0,0,1,2.912-.6A2.569,2.569,0,0,1,440.9,448.453Z" transform="translate(-436.541 -447.922)"/></g><g transform="translate(133.469 0.168)"><path class="b" d="M456.4,451.663v-4.524h-.73v-.794h1.674v5.318Zm.516-7.329a.583.583,0,1,1,0,1.166.558.558,0,0,1-.41-.172.581.581,0,0,1,.41-.995Z" transform="translate(-455.668 -444.334)"/></g><g transform="translate(141.377 2.08)"><path class="b" d="M470.51,450.667a2.908,2.908,0,0,1,.663-1.989,2.456,2.456,0,0,1,3.517-.03,3.527,3.527,0,0,1-.014,4.047,2.46,2.46,0,0,1-3.53-.007A3.02,3.02,0,0,1,470.51,450.667Zm.993,0q0,2,1.415,2a1.2,1.2,0,0,0,1.035-.536,2.518,2.518,0,0,0,.375-1.464q0-1.976-1.41-1.976a1.212,1.212,0,0,0-1.03.526A2.411,2.411,0,0,0,471.5,450.667Z" transform="translate(-470.51 -447.922)"/></g><g transform="translate(152.264 2.08)"><path class="b" d="M494.213,453.339v-3.094a2.054,2.054,0,0,0-.255-1.189,1,1,0,0,0-.857-.339,1.406,1.406,0,0,0-.675.193,1.5,1.5,0,0,0-.541.477v3.953h-.944v-5.318h.645l.3.686a1.634,1.634,0,0,1,1.524-.785q1.748,0,1.748,2.125v3.292Z" transform="translate(-490.941 -447.922)"/></g><g transform="translate(162.556 2.08)"><path class="b" d="M515.081,450.772h-3.832a1.92,1.92,0,0,0,.511,1.435,1.605,1.605,0,0,0,1.162.436,1.987,1.987,0,0,0,1.35-.471l.4.68a1.793,1.793,0,0,1-.67.378,3.635,3.635,0,0,1-1.261.208,2.351,2.351,0,0,1-1.7-.68,2.666,2.666,0,0,1-.78-2.016,2.842,2.842,0,0,1,.8-2.11,2.32,2.32,0,0,1,1.693-.71,2.419,2.419,0,0,1,1.782.64,2.191,2.191,0,0,1,.625,1.634A2.118,2.118,0,0,1,515.081,450.772Zm-2.288-2.056a1.49,1.49,0,0,0-1.52,1.371h2.944a1.341,1.341,0,0,0-.358-.953A1.4,1.4,0,0,0,512.792,448.716Z" transform="translate(-510.255 -447.922)"/></g><g transform="translate(173.184 2.08)"><path class="b" d="M530.2,453.02l.333-.894a2.56,2.56,0,0,0,1.271.516q.874,0,.874-.735,0-.526-.844-.9a6.869,6.869,0,0,1-.877-.452,1.95,1.95,0,0,1-.392-.351,1.376,1.376,0,0,1-.248-.417,1.334,1.334,0,0,1-.082-.473,1.217,1.217,0,0,1,.476-1.023,1.988,1.988,0,0,1,1.246-.367,4.009,4.009,0,0,1,1.464.367l-.268.873a1.806,1.806,0,0,0-1.127-.447.979.979,0,0,0-.568.159.472.472,0,0,0-.231.4.835.835,0,0,0,.581.774l.675.308a2.371,2.371,0,0,1,.9.645,1.43,1.43,0,0,1,.283.908,1.357,1.357,0,0,1-.5,1.119,2.149,2.149,0,0,1-1.39.405A3.164,3.164,0,0,1,530.2,453.02Z" transform="translate(-530.202 -447.922)"/></g></g><g transform="translate(238.925 150.217)"><g transform="translate(22.891 41.573)"><g class="c"><path class="d" d="M323.713,234.461v0Z" transform="translate(-323.713 -234.461)"/><rect class="d" width="0.168" height="12.531"/><rect class="e" width="0.168" height="12.531" transform="translate(0.168)"/><rect class="e" width="0.168" height="12.531" transform="translate(0.336)"/><rect class="f" width="0.168" height="12.531" transform="translate(0.504)"/><rect class="f" width="0.168" height="12.531" transform="translate(0.672)"/><rect class="g" width="0.168" height="12.531" transform="translate(0.84)"/><rect class="g" width="0.168" height="12.531" transform="translate(1.008)"/><rect class="h" width="0.168" height="12.531" transform="translate(1.177)"/><rect class="h" width="0.168" height="12.531" transform="translate(1.344)"/><rect class="i" width="0.168" height="12.531" transform="translate(1.512)"/><rect class="j" width="0.168" height="12.531" transform="translate(1.68)"/><rect class="k" width="0.168" height="12.531" transform="translate(1.848)"/><rect class="l" width="0.168" height="12.531" transform="translate(2.017)"/><rect class="m" width="0.168" height="12.531" transform="translate(2.185)"/><rect class="n" width="0.168" height="12.531" transform="translate(2.353)"/><rect class="o" width="0.168" height="12.531" transform="translate(2.521)"/><rect class="p" width="0.168" height="12.531" transform="translate(2.689)"/><rect class="q" width="0.168" height="12.531" transform="translate(2.857)"/><rect class="q" width="0.168" height="12.531" transform="translate(3.025)"/><rect class="r" width="0.168" height="12.531" transform="translate(3.193)"/><rect class="r" width="0.168" height="12.531" transform="translate(3.361)"/><rect class="s" width="0.168" height="12.531" transform="translate(3.529)"/><rect class="t" width="0.168" height="12.531" transform="translate(3.697)"/><rect class="u" width="0.168" height="12.531" transform="translate(3.865)"/><rect class="v" width="0.168" height="12.531" transform="translate(4.033)"/><rect class="w" width="0.168" height="12.531" transform="translate(4.201)"/><rect class="x" width="0.168" height="12.531" transform="translate(4.369)"/><rect class="x" width="0.168" height="12.531" transform="translate(4.537)"/><rect class="y" width="0.168" height="12.531" transform="translate(4.705)"/><rect class="y" width="0.168" height="12.531" transform="translate(4.873)"/><rect class="z" width="0.168" height="12.531" transform="translate(5.042)"/><rect class="z" width="0.168" height="12.531" transform="translate(5.21)"/><rect class="aa" width="0.168" height="12.531" transform="translate(5.378)"/><rect class="aa" width="0.169" height="12.531" transform="translate(5.545)"/><rect class="ab" width="0.168" height="12.531" transform="translate(5.714)"/><rect class="ab" width="0.168" height="12.531" transform="translate(5.882)"/><rect class="ac" width="0.168" height="12.531" transform="translate(6.05)"/><rect class="ac" width="0.168" height="12.531" transform="translate(6.218)"/><rect class="ac" width="0.213" height="12.531" transform="translate(6.386)"/><rect class="ac" width="0.214" height="12.531" transform="translate(6.599)"/><rect class="ab" width="0.214" height="12.531" transform="translate(6.813)"/><rect class="ab" width="0.214" height="12.531" transform="translate(7.027)"/><rect class="aa" width="0.213" height="12.531" transform="translate(7.241)"/><rect class="aa" width="0.214" height="12.531" transform="translate(7.454)"/><rect class="z" width="0.214" height="12.531" transform="translate(7.668)"/><rect class="z" width="0.213" height="12.531" transform="translate(7.881)"/><rect class="y" width="0.214" height="12.531" transform="translate(8.095)"/><rect class="y" width="0.214" height="12.531" transform="translate(8.308)"/><rect class="x" width="0.213" height="12.531" transform="translate(8.522)"/><rect class="x" width="0.214" height="12.531" transform="translate(8.736)"/><rect class="w" width="0.214" height="12.531" transform="translate(8.949)"/><rect class="v" width="0.213" height="12.531" transform="translate(9.163)"/><rect class="u" width="0.214" height="12.531" transform="translate(9.376)"/><rect class="t" width="0.214" height="12.531" transform="translate(9.59)"/><rect class="s" width="0.214" height="12.531" transform="translate(9.804)"/><rect class="r" width="0.214" height="12.531" transform="translate(10.018)"/><rect class="r" width="0.213" height="12.531" transform="translate(10.231)"/><rect class="q" width="0.214" height="12.531" transform="translate(10.445)"/><rect class="q" width="0.213" height="12.531" transform="translate(10.659)"/><rect class="p" width="0.214" height="12.531" transform="translate(10.872)"/><rect class="o" width="0.214" height="12.531" transform="translate(11.086)"/><rect class="n" width="0.214" height="12.531" transform="translate(11.299)"/><rect class="m" width="0.214" height="12.531" transform="translate(11.513)"/><rect class="l" width="0.213" height="12.531" transform="translate(11.727)"/><rect class="k" width="0.213" height="12.531" transform="translate(11.94)"/><rect class="j" width="0.214" height="12.531" transform="translate(12.154)"/><rect class="i" width="0.213" height="12.531" transform="translate(12.368)"/><rect class="h" width="0.214" height="12.531" transform="translate(12.581)"/><rect class="h" width="0.214" height="12.531" transform="translate(12.795)"/><rect class="g" width="0.213" height="12.531" transform="translate(13.009)"/><rect class="g" width="0.214" height="12.531" transform="translate(13.222)"/><rect class="f" width="0.214" height="12.531" transform="translate(13.436)"/><rect class="f" width="0.213" height="12.531" transform="translate(13.649)"/><rect class="e" width="0.214" height="12.531" transform="translate(13.863)"/><rect class="e" width="0.214" height="12.531" transform="translate(14.077)"/><rect class="d" width="0.214" height="12.531" transform="translate(14.29)"/><rect class="d" width="7.469" height="12.531" transform="translate(14.504)"/></g></g><g transform="translate(7.287 22.131)"><g class="ad"><path class="d" d="M304.351,197.975l-9.923,5.729v-5.729Z" transform="translate(-294.429 -197.975)"/><path class="d" d="M304.7,197.975,294.429,203.9v-.2l9.923-5.729Z" transform="translate(-294.429 -197.975)"/><path class="e" d="M305.042,197.975,294.429,204.1v-.2l10.268-5.928Z" transform="translate(-294.429 -197.975)"/><path class="e" d="M305.388,197.975,294.429,204.3v-.2l10.614-6.128Z" transform="translate(-294.429 -197.975)"/><path class="f" d="M305.733,197.975l-11.3,6.527v-.2l10.959-6.328Z" transform="translate(-294.429 -197.975)"/><path class="f" d="M306.079,197.975l-11.65,6.726v-.2l11.3-6.527Z" transform="translate(-294.429 -197.975)"/><path class="g" d="M306.424,197.975l-12,6.926v-.2l11.65-6.726Z" transform="translate(-294.429 -197.975)"/><path class="g" d="M306.77,197.975,294.429,205.1v-.2l12-6.926Z" transform="translate(-294.429 -197.975)"/><path class="h" d="M307.115,197.975,294.429,205.3v-.2l12.341-7.125Z" transform="translate(-294.429 -197.975)"/><path class="h" d="M307.461,197.975,294.429,205.5v-.2l12.687-7.325Z" transform="translate(-294.429 -197.975)"/><path class="i" d="M307.806,197.975,294.429,205.7v-.2l13.033-7.524Z" transform="translate(-294.429 -197.975)"/><path class="j" d="M308.152,197.975,294.429,205.9v-.2l13.378-7.723Z" transform="translate(-294.429 -197.975)"/><path class="k" d="M308.5,197.975,294.429,206.1v-.2l13.723-7.923Z" transform="translate(-294.429 -197.975)"/><path class="l" d="M308.843,197.975,294.429,206.3v-.2l14.069-8.123Z" transform="translate(-294.429 -197.975)"/><path class="m" d="M309.188,197.975l-14.76,8.521v-.2l14.414-8.322Z" transform="translate(-294.429 -197.975)"/><path class="n" d="M309.534,197.975,294.429,206.7v-.2l14.76-8.521Z" transform="translate(-294.429 -197.975)"/><path class="o" d="M309.879,197.975l-15.341,8.857h-.11V206.7l15.105-8.721Z" transform="translate(-294.429 -197.975)"/><path class="p" d="M310.322,197.975l-15.341,8.857h-.346l15.341-8.857Z" transform="translate(-294.525 -197.975)"/><path class="q" d="M310.97,197.975l-15.341,8.857h-.345l15.341-8.857Z" transform="translate(-294.828 -197.975)"/><path class="q" d="M311.618,197.975l-15.341,8.857h-.346l15.341-8.857Z" transform="translate(-295.131 -197.975)"/><path class="r" d="M312.267,197.975l-15.341,8.857h-.346l15.341-8.857Z" transform="translate(-295.434 -197.975)"/><path class="r" d="M312.915,197.975l-15.341,8.857h-.346l15.341-8.857Z" transform="translate(-295.737 -197.975)"/><path class="s" d="M313.563,197.975l-15.341,8.857h-.345l15.341-8.857Z" transform="translate(-296.04 -197.975)"/><path class="t" d="M314.212,197.975l-15.341,8.857h-.346l15.341-8.857Z" transform="translate(-296.342 -197.975)"/><path class="u" d="M314.86,197.975l-15.341,8.857h-.345l15.341-8.857Z" transform="translate(-296.646 -197.975)"/><path class="v" d="M315.509,197.975l-15.341,8.857h-.346l15.341-8.857Z" transform="translate(-296.948 -197.975)"/><path class="w" d="M316.157,197.975l-15.341,8.857h-.345l15.341-8.857Z" transform="translate(-297.251 -197.975)"/><path class="x" d="M316.805,197.975l-15.341,8.857h-.346l15.341-8.857Z" transform="translate(-297.554 -197.975)"/><path class="x" d="M317.454,197.975l-15.341,8.857h-.346l15.341-8.857Z" transform="translate(-297.857 -197.975)"/><path class="y" d="M318.1,197.975l-15.341,8.857h-.345l15.341-8.857Z" transform="translate(-298.16 -197.975)"/><path class="y" d="M318.751,197.975l-15.341,8.857h-.345l15.341-8.857Z" transform="translate(-298.463 -197.975)"/><path class="z" d="M319.4,197.975l-15.341,8.857h-.346l15.341-8.857Z" transform="translate(-298.766 -197.975)"/><path class="z" d="M320.048,197.975l-15.341,8.857h-.346l15.341-8.857Z" transform="translate(-299.069 -197.975)"/><path class="aa" d="M320.7,197.975l-15.341,8.857h-.345l15.341-8.857Z" transform="translate(-299.372 -197.975)"/><path class="aa" d="M321.345,197.975,306,206.832h-.346L321,197.975Z" transform="translate(-299.675 -197.975)"/><path class="ab" d="M321.993,197.975l-15.341,8.857h-.345l15.341-8.857Z" transform="translate(-299.978 -197.975)"/><path class="ab" d="M322.641,197.975,307.3,206.832h-.346l15.341-8.857Z" transform="translate(-300.28 -197.975)"/><path class="ac" d="M323.29,197.975l-15.341,8.857H307.6l15.341-8.857Z" transform="translate(-300.583 -197.975)"/><path class="ac" d="M323.939,197.975,308.6,206.832h-.345l15.341-8.857Z" transform="translate(-300.887 -197.975)"/><path class="ac" d="M324.68,197.975l-15.341,8.857H308.9l15.341-8.857Z" transform="translate(-301.189 -197.975)"/><path class="ac" d="M325.5,197.975l-15.341,8.857h-.439l15.341-8.857Z" transform="translate(-301.574 -197.975)"/><path class="ab" d="M326.328,197.975l-15.341,8.857h-.439l15.341-8.857Z" transform="translate(-301.959 -197.975)"/><path class="ab" d="M327.153,197.975l-15.341,8.857h-.439l15.341-8.857Z" transform="translate(-302.344 -197.975)"/><path class="aa" d="M327.977,197.975l-15.341,8.857H312.2l15.341-8.857Z" transform="translate(-302.729 -197.975)"/><path class="aa" d="M328.8,197.975l-15.341,8.857h-.439l15.341-8.857Z" transform="translate(-303.114 -197.975)"/><path class="z" d="M329.625,197.975l-15.341,8.857h-.439l15.341-8.857Z" transform="translate(-303.499 -197.975)"/><path class="z" d="M330.45,197.975l-15.341,8.857h-.439l15.341-8.857Z" transform="translate(-303.884 -197.975)"/><path class="y" d="M331.274,197.975l-15.341,8.857h-.439l15.341-8.857Z" transform="translate(-304.269 -197.975)"/><path class="y" d="M332.1,197.975l-15.341,8.857h-.439l15.341-8.857Z" transform="translate(-304.654 -197.975)"/><path class="x" d="M332.923,197.975l-15.341,8.857h-.44l15.341-8.857Z" transform="translate(-305.039 -197.975)"/><path class="x" d="M333.747,197.975l-15.341,8.857h-.439l15.341-8.857Z" transform="translate(-305.425 -197.975)"/><path class="w" d="M334.571,197.975l-15.341,8.857h-.439l15.341-8.857Z" transform="translate(-305.81 -197.975)"/><path class="v" d="M335.4,197.975l-15.341,8.857h-.439l15.341-8.857Z" transform="translate(-306.195 -197.975)"/><path class="u" d="M336.22,197.975l-15.341,8.857h-.439l15.341-8.857Z" transform="translate(-306.58 -197.975)"/><path class="t" d="M337.044,197.975,321.7,206.832h-.439l15.341-8.857Z" transform="translate(-306.965 -197.975)"/><path class="s" d="M337.868,197.975l-15.341,8.857h-.439l15.341-8.857Z" transform="translate(-307.35 -197.975)"/><path class="r" d="M338.693,197.975l-15.341,8.857h-.44l15.341-8.857Z" transform="translate(-307.735 -197.975)"/><path class="r" d="M339.518,197.975l-15.341,8.857h-.438l15.341-8.857Z" transform="translate(-308.12 -197.975)"/><path class="q" d="M340.341,197.975,325,206.832h-.439l15.341-8.857Z" transform="translate(-308.505 -197.975)"/><path class="q" d="M341.166,197.975l-15.341,8.857h-.439l15.341-8.857Z" transform="translate(-308.89 -197.975)"/><path class="p" d="M341.99,197.975l-15.341,8.857h-.439l15.341-8.857Z" transform="translate(-309.275 -197.975)"/><path class="o" d="M342.814,197.975l-15.341,8.857h-.439l15.341-8.857Z" transform="translate(-309.66 -197.975)"/><path class="n" d="M343.638,197.975,328.3,206.832h-.439l15.341-8.857Z" transform="translate(-310.045 -197.975)"/><path class="m" d="M344.462,197.975l-15.341,8.857h-.439l15.341-8.857Z" transform="translate(-310.43 -197.975)"/><path class="l" d="M345.287,197.975l-15.341,8.857h-.439l15.341-8.857Z" transform="translate(-310.815 -197.975)"/><path class="k" d="M346.111,197.975l-15.341,8.857h-.439l15.341-8.857Z" transform="translate(-311.2 -197.975)"/><path class="j" d="M346.936,197.975l-15.341,8.857h-.439l15.34-8.857Z" transform="translate(-311.585 -197.975)"/><path class="i" d="M347.76,197.975l-15.341,8.857h-.439l15.341-8.857Z" transform="translate(-311.971 -197.975)"/><path class="h" d="M348.583,197.975l-15.341,8.857H332.8l15.341-8.857Z" transform="translate(-312.355 -197.975)"/><path class="h" d="M349.408,197.975l-15.341,8.857h-.44l15.341-8.857Z" transform="translate(-312.74 -197.975)"/><path class="g" d="M350.233,197.975l-15.341,8.857h-.439l15.341-8.857Z" transform="translate(-313.126 -197.975)"/><path class="g" d="M351.057,197.975l-15.341,8.857h-.439l15.341-8.857Z" transform="translate(-313.511 -197.975)"/><path class="f" d="M351.881,197.975l-15.341,8.857H336.1l15.341-8.857Z" transform="translate(-313.896 -197.975)"/><path class="f" d="M352.705,197.975l-15.341,8.857h-.44l15.341-8.857Z" transform="translate(-314.281 -197.975)"/><path class="e" d="M353.53,197.975l-15.341,8.857h-.439l15.341-8.857Z" transform="translate(-314.666 -197.975)"/><path class="e" d="M354.354,197.975l-15.341,8.857h-.438l15.341-8.857Z" transform="translate(-315.051 -197.975)"/><path class="d" d="M355.178,197.975l-15.341,8.857H339.4l15.341-8.857Z" transform="translate(-315.436 -197.975)"/><path class="d" d="M340.224,206.832l15.341-8.857h5.19v8.857Z" transform="translate(-315.822 -197.975)"/></g></g><g transform="translate(0 0)"><g class="ae"><path class="af" d="M280.753,214.6h0Z" transform="translate(-280.753 -183.609)"/><rect class="af" width="60.486" height="0.097" transform="translate(0 30.891)"/><rect class="ag" width="60.486" height="0.097" transform="translate(0 30.794)"/><rect class="ah" width="60.486" height="0.097" transform="translate(0 30.697)"/><rect class="ai" width="60.486" height="0.097" transform="translate(0 30.601)"/><rect class="aj" width="60.486" height="0.097" transform="translate(0 30.504)"/><rect class="ak" width="60.486" height="0.096" transform="translate(0 30.408)"/><rect class="al" width="60.486" height="0.097" transform="translate(0 30.311)"/><rect class="am" width="60.486" height="0.097" transform="translate(0 30.214)"/><rect class="an" width="60.486" height="0.097" transform="translate(0 30.117)"/><rect class="ao" width="60.486" height="0.097" transform="translate(0 30.02)"/><rect class="ap" width="60.486" height="0.097" transform="translate(0 29.923)"/><rect class="aq" width="60.486" height="0.097" transform="translate(0 29.827)"/><rect class="ar" width="60.486" height="0.097" transform="translate(0 29.73)"/><rect class="as" width="60.486" height="0.097" transform="translate(0 29.633)"/><rect class="at" width="60.486" height="0.097" transform="translate(0 29.536)"/><rect class="au" width="60.486" height="0.097" transform="translate(0 29.439)"/><rect class="av" width="60.486" height="0.096" transform="translate(0 29.343)"/><rect class="aw" width="60.486" height="0.097" transform="translate(0 29.246)"/><rect class="ax" width="60.486" height="0.097" transform="translate(0 29.149)"/><rect class="ay" width="60.486" height="0.097" transform="translate(0 29.053)"/><rect class="az" width="60.486" height="0.097" transform="translate(0 28.956)"/><rect class="ba" width="60.486" height="0.097" transform="translate(0 28.859)"/><rect class="bb" width="60.486" height="0.097" transform="translate(0 28.762)"/><rect class="bc" width="60.486" height="0.097" transform="translate(0 28.665)"/><rect class="bd" width="60.486" height="0.097" transform="translate(0 28.569)"/><rect class="be" width="60.486" height="0.097" transform="translate(0 28.472)"/><rect class="bf" width="60.486" height="0.097" transform="translate(0 28.375)"/><rect class="bg" width="60.486" height="0.097" transform="translate(0 28.279)"/><rect class="bh" width="60.486" height="0.097" transform="translate(0 28.182)"/><rect class="bi" width="60.486" height="0.097" transform="translate(0 28.085)"/><rect class="bj" width="60.486" height="0.097" transform="translate(0 27.988)"/><rect class="bk" width="60.486" height="0.097" transform="translate(0 27.891)"/><rect class="bk" width="60.486" height="0.097" transform="translate(0 27.795)"/><rect class="bl" width="60.486" height="0.097" transform="translate(0 27.698)"/><rect class="bl" width="60.486" height="0.097" transform="translate(0 27.601)"/><rect class="bm" width="60.486" height="0.097" transform="translate(0 27.504)"/><rect class="bm" width="60.486" height="0.097" transform="translate(0 27.408)"/><rect class="bn" width="60.486" height="0.097" transform="translate(0 27.311)"/><rect class="bn" width="60.486" height="0.097" transform="translate(0 27.214)"/><rect class="bo" width="60.486" height="0.097" transform="translate(0 27.117)"/><rect class="bp" width="60.486" height="0.097" transform="translate(0 27.021)"/><rect class="bp" width="60.486" height="0.097" transform="translate(0 26.924)"/><rect class="bq" width="60.486" height="0.097" transform="translate(0 26.827)"/><rect class="bq" width="60.486" height="0.097" transform="translate(0 26.73)"/><rect class="br" width="60.486" height="0.097" transform="translate(0 26.633)"/><rect class="bs" width="60.486" height="0.097" transform="translate(0 26.537)"/><rect class="bt" width="60.486" height="0.097" transform="translate(0 26.44)"/><rect class="bt" width="60.486" height="0.097" transform="translate(0 26.343)"/><rect class="bu" width="60.486" height="0.096" transform="translate(0 26.247)"/><rect class="bu" width="60.486" height="0.097" transform="translate(0 26.15)"/><rect class="bu" width="60.486" height="0.097" transform="translate(0 26.053)"/><rect class="bv" width="60.486" height="0.097" transform="translate(0 25.956)"/><rect class="bv" width="60.486" height="0.097" transform="translate(0 25.859)"/><rect class="bw" width="60.486" height="0.097" transform="translate(0 25.762)"/><rect class="bw" width="60.486" height="0.097" transform="translate(0 25.666)"/><rect class="bx" width="60.486" height="0.097" transform="translate(0 25.569)"/><rect class="bx" width="60.486" height="0.097" transform="translate(0 25.472)"/><rect class="by" width="60.486" height="0.097" transform="translate(0 25.375)"/><rect class="by" width="60.486" height="0.097" transform="translate(0 25.278)"/><rect class="by" width="60.486" height="0.096" transform="translate(0 25.182)"/><rect class="bz" width="60.486" height="0.097" transform="translate(0 25.085)"/><rect class="bz" width="60.486" height="0.097" transform="translate(0 24.988)"/><rect class="ca" width="60.486" height="0.097" transform="translate(0 24.892)"/><rect class="cb" width="60.486" height="0.097" transform="translate(0 24.795)"/><rect class="cc" width="60.486" height="0.097" transform="translate(0 24.698)"/><rect class="cc" width="60.486" height="0.097" transform="translate(0 24.601)"/><rect class="cc" width="60.486" height="0.097" transform="translate(0 24.504)"/><rect class="cd" width="60.486" height="0.097" transform="translate(0 24.408)"/><rect class="ce" width="60.486" height="0.097" transform="translate(0 24.311)"/><rect class="cf" width="60.486" height="0.097" transform="translate(0 24.214)"/><rect class="cf" width="60.486" height="0.097" transform="translate(0 24.117)"/><rect class="cf" width="60.486" height="0.097" transform="translate(0 24.021)"/><rect class="cg" width="60.486" height="0.097" transform="translate(0 23.924)"/><rect class="cg" width="60.486" height="0.097" transform="translate(0 23.827)"/><rect class="ch" width="60.486" height="0.097" transform="translate(0 23.73)"/><rect class="ch" width="60.486" height="0.097" transform="translate(0 23.634)"/><rect class="ch" width="60.486" height="0.097" transform="translate(0 23.537)"/><rect class="ci" width="60.486" height="0.097" transform="translate(0 23.44)"/><rect class="ci" width="60.486" height="0.097" transform="translate(0 23.343)"/><rect class="cj" width="60.486" height="0.097" transform="translate(0 23.246)"/><rect class="ck" width="60.486" height="0.097" transform="translate(0 23.15)"/><rect class="ck" width="60.486" height="0.097" transform="translate(0 23.053)"/><rect class="cl" width="60.486" height="0.097" transform="translate(0 22.956)"/><rect class="cl" width="60.486" height="0.097" transform="translate(0 22.86)"/><rect class="cm" width="60.486" height="0.097" transform="translate(0 22.763)"/><rect class="cm" width="60.486" height="0.097" transform="translate(0 22.666)"/><rect class="cn" width="60.486" height="0.097" transform="translate(0 22.569)"/><rect class="co" width="60.486" height="0.097" transform="translate(0 22.472)"/><rect class="co" width="60.486" height="0.097" transform="translate(0 22.376)"/><rect class="co" width="60.486" height="0.097" transform="translate(0 22.279)"/><rect class="cp" width="60.486" height="0.097" transform="translate(0 22.182)"/><rect class="cq" width="60.486" height="0.096" transform="translate(0 22.085)"/><rect class="cr" width="60.486" height="0.097" transform="translate(0 21.989)"/><rect class="cr" width="60.486" height="0.097" transform="translate(0 21.892)"/><rect class="cr" width="60.486" height="0.097" transform="translate(0 21.795)"/><rect class="cs" width="60.486" height="0.097" transform="translate(0 21.698)"/><rect class="cs" width="60.486" height="0.097" transform="translate(0 21.602)"/><rect class="ct" width="60.486" height="0.097" transform="translate(0 21.505)"/><rect class="cu" width="60.486" height="0.097" transform="translate(0 21.408)"/><rect class="cu" width="60.486" height="0.097" transform="translate(0 21.311)"/><rect class="cv" width="60.486" height="0.097" transform="translate(0 21.214)"/><rect class="cv" width="60.486" height="0.097" transform="translate(0 21.117)"/><rect class="cw" width="60.486" height="0.096" transform="translate(0 21.021)"/><rect class="cx" width="60.486" height="0.097" transform="translate(0 20.924)"/><rect class="cx" width="60.486" height="0.097" transform="translate(0 20.827)"/><rect class="cx" width="60.486" height="0.097" transform="translate(0 20.731)"/><rect class="cy" width="60.486" height="0.097" transform="translate(0 20.634)"/><rect class="cz" width="60.486" height="0.097" transform="translate(0 20.537)"/><rect class="da" width="60.486" height="0.097" transform="translate(0 20.44)"/><rect class="da" width="60.486" height="0.097" transform="translate(0 20.343)"/><rect class="da" width="60.486" height="0.097" transform="translate(0 20.247)"/><rect class="db" width="60.486" height="0.097" transform="translate(0 20.15)"/><rect class="db" width="60.486" height="0.158" transform="translate(0 19.992)"/><rect class="dc" width="60.486" height="0.157" transform="translate(0 19.835)"/><rect class="dc" width="60.486" height="0.158" transform="translate(0 19.677)"/><rect class="dc" width="60.486" height="0.157" transform="translate(0 19.52)"/><rect class="dd" width="60.486" height="0.158" transform="translate(0 19.362)"/><rect class="dd" width="60.486" height="0.157" transform="translate(0 19.205)"/><rect class="dd" width="60.486" height="0.158" transform="translate(0 19.048)"/><rect class="de" width="60.486" height="0.157" transform="translate(0 18.89)"/><rect class="de" width="60.486" height="0.158" transform="translate(0 18.733)"/><rect class="de" width="60.486" height="0.157" transform="translate(0 18.576)"/><rect class="df" width="60.486" height="0.158" transform="translate(0 18.418)"/><rect class="df" width="60.486" height="0.157" transform="translate(0 18.261)"/><rect class="df" width="60.486" height="0.158" transform="translate(0 18.103)"/><rect class="dg" width="60.486" height="0.157" transform="translate(0 17.946)"/><rect class="dg" width="60.486" height="0.158" transform="translate(0 17.788)"/><rect class="dg" width="60.486" height="0.157" transform="translate(0 17.631)"/><rect class="dh" width="60.486" height="0.158" transform="translate(0 17.473)"/><rect class="di" width="60.486" height="0.157" transform="translate(0 17.316)"/><rect class="di" width="60.486" height="0.158" transform="translate(0 17.159)"/><rect class="dj" width="60.486" height="0.157" transform="translate(0 17.001)"/><rect class="dk" width="60.486" height="0.158" transform="translate(0 16.844)"/><rect class="dl" width="60.486" height="0.157" transform="translate(0 16.687)"/><rect class="dl" width="60.486" height="0.158" transform="translate(0 16.529)"/><rect class="dm" width="60.486" height="0.157" transform="translate(0 16.372)"/><rect class="dn" width="60.486" height="0.158" transform="translate(0 16.214)"/><rect class="dn" width="60.486" height="0.157" transform="translate(0 16.057)"/><rect class="do" width="60.486" height="0.158" transform="translate(0 15.899)"/><rect class="dp" width="60.486" height="0.157" transform="translate(0 15.742)"/><rect class="dp" width="60.486" height="0.158" transform="translate(0 15.585)"/><rect class="dq" width="60.486" height="0.157" transform="translate(0 15.427)"/><rect class="dr" width="60.486" height="0.158" transform="translate(0 15.27)"/><rect class="dr" width="60.486" height="0.157" transform="translate(0 15.113)"/><rect class="ds" width="60.486" height="0.158" transform="translate(0 14.955)"/><rect class="dt" width="60.486" height="0.157" transform="translate(0 14.798)"/><rect class="dt" width="60.486" height="0.158" transform="translate(0 14.64)"/><rect class="du" width="60.486" height="0.157" transform="translate(0 14.483)"/><rect class="du" width="60.486" height="0.157" transform="translate(0 14.325)"/><rect class="du" width="60.486" height="0.157" transform="translate(0 14.168)"/><rect class="dv" width="60.486" height="0.157" transform="translate(0 14.01)"/><rect class="dv" width="60.486" height="0.157" transform="translate(0 13.853)"/><rect class="dv" width="60.486" height="0.157" transform="translate(0 13.696)"/><rect class="dw" width="60.486" height="0.157" transform="translate(0 13.538)"/><rect class="dw" width="60.486" height="0.157" transform="translate(0 13.381)"/><rect class="dx" width="60.486" height="0.157" transform="translate(0 13.223)"/><rect class="dy" width="60.486" height="0.157" transform="translate(0 13.066)"/><rect class="dy" width="60.486" height="0.158" transform="translate(0 12.908)"/><rect class="dz" width="60.486" height="0.158" transform="translate(0 12.751)"/><rect class="dz" width="60.486" height="0.157" transform="translate(0 12.594)"/><rect class="ea" width="60.486" height="0.157" transform="translate(0 12.436)"/><rect class="eb" width="60.486" height="0.157" transform="translate(0 12.279)"/><rect class="eb" width="60.486" height="0.157" transform="translate(0 12.121)"/><rect class="ec" width="60.486" height="0.157" transform="translate(0 11.964)"/><rect class="ed" width="60.486" height="0.157" transform="translate(0 11.806)"/><rect class="ee" width="60.486" height="0.157" transform="translate(0 11.649)"/><rect class="ef" width="60.486" height="0.157" transform="translate(0 11.492)"/><rect class="ef" width="60.486" height="0.157" transform="translate(0 11.334)"/><rect class="eg" width="60.486" height="0.157" transform="translate(0 11.177)"/><rect class="eh" width="60.486" height="0.158" transform="translate(0 11.019)"/><rect class="eh" width="60.486" height="0.157" transform="translate(0 10.862)"/><rect class="ei" width="60.486" height="0.158" transform="translate(0 10.704)"/><rect class="ej" width="60.486" height="0.157" transform="translate(0 10.547)"/><rect class="ek" width="60.486" height="0.158" transform="translate(0 10.39)"/><rect class="ek" width="60.486" height="0.157" transform="translate(0 10.232)"/><rect class="el" width="60.486" height="0.158" transform="translate(0 10.075)"/><rect class="em" width="60.486" height="0.157" transform="translate(0 9.918)"/><rect class="en" width="60.486" height="0.158" transform="translate(0 9.76)"/><rect class="eo" width="60.486" height="0.157" transform="translate(0 9.603)"/><rect class="eo" width="60.486" height="0.158" transform="translate(0 9.445)"/><rect class="ep" width="60.486" height="0.157" transform="translate(0 9.288)"/><rect class="ep" width="60.486" height="0.158" transform="translate(0 9.13)"/><rect class="eq" width="60.486" height="0.157" transform="translate(0 8.973)"/><rect class="er" width="60.486" height="0.158" transform="translate(0 8.815)"/><rect class="er" width="60.486" height="0.157" transform="translate(0 8.658)"/><rect class="es" width="60.486" height="0.158" transform="translate(0 8.501)"/><rect class="es" width="60.486" height="0.157" transform="translate(0 8.343)"/><rect class="et" width="60.486" height="0.158" transform="translate(0 8.186)"/><rect class="eu" width="60.486" height="0.157" transform="translate(0 8.029)"/><rect class="eu" width="60.486" height="0.158" transform="translate(0 7.871)"/><rect class="ev" width="60.486" height="0.157" transform="translate(0 7.714)"/><rect class="ev" width="60.486" height="0.158" transform="translate(0 7.556)"/><rect class="ew" width="60.486" height="0.157" transform="translate(0 7.399)"/><rect class="ew" width="60.486" height="0.158" transform="translate(0 7.241)"/><rect class="ex" width="60.486" height="0.157" transform="translate(0 7.084)"/><rect class="ey" width="60.486" height="0.158" transform="translate(0 6.926)"/><rect class="ey" width="60.486" height="0.157" transform="translate(0 6.769)"/><rect class="ez" width="60.486" height="0.158" transform="translate(0 6.612)"/><rect class="ez" width="60.486" height="0.157" transform="translate(0 6.455)"/><rect class="fa" width="60.486" height="0.158" transform="translate(0 6.297)"/><rect class="fb" width="60.486" height="0.157" transform="translate(0 6.14)"/><rect class="fc" width="60.486" height="0.158" transform="translate(0 5.982)"/><rect class="fd" width="60.486" height="0.157" transform="translate(0 5.825)"/><rect class="fd" width="60.486" height="0.158" transform="translate(0 5.667)"/><rect class="fe" width="60.486" height="0.158" transform="translate(0 5.51)"/><rect class="fe" width="60.486" height="0.157" transform="translate(0 5.352)"/><rect class="ff" width="60.486" height="0.158" transform="translate(0 5.195)"/><rect class="ff" width="60.486" height="0.157" transform="translate(0 5.038)"/><rect class="fg" width="60.486" height="0.158" transform="translate(0 4.88)"/><rect class="fh" width="60.486" height="0.157" transform="translate(0 4.723)"/><rect class="fh" width="60.486" height="0.158" transform="translate(0 4.565)"/><rect class="v" width="60.486" height="0.157" transform="translate(0 4.408)"/><rect class="v" width="60.486" height="0.158" transform="translate(0 4.25)"/><rect class="t" width="60.486" height="0.157" transform="translate(0 4.093)"/><rect class="t" width="60.486" height="0.158" transform="translate(0 3.935)"/><rect class="fi" width="60.486" height="0.157" transform="translate(0 3.778)"/><rect class="fi" width="60.486" height="0.158" transform="translate(0 3.621)"/><rect class="fj" width="60.486" height="0.157" transform="translate(0 3.463)"/><rect class="fj" width="60.486" height="0.158" transform="translate(0 3.306)"/><rect class="q" width="60.486" height="0.157" transform="translate(0 3.149)"/><rect class="fk" width="60.486" height="0.158" transform="translate(0 2.991)"/><rect class="fk" width="60.486" height="0.157" transform="translate(0 2.834)"/><rect class="o" width="60.486" height="0.158" transform="translate(0 2.676)"/><rect class="o" width="60.486" height="0.157" transform="translate(0 2.519)"/><rect class="m" width="60.486" height="0.157" transform="translate(0 2.361)"/><rect class="m" width="60.486" height="0.157" transform="translate(0 2.204)"/><rect class="k" width="60.486" height="0.157" transform="translate(0 2.047)"/><rect class="k" width="60.486" height="0.157" transform="translate(0 1.889)"/><rect class="i" width="60.486" height="0.157" transform="translate(0 1.732)"/><rect class="i" width="60.486" height="0.157" transform="translate(0 1.574)"/><rect class="h" width="60.486" height="0.157" transform="translate(0 1.417)"/><rect class="h" width="60.486" height="0.157" transform="translate(0 1.259)"/><rect class="g" width="60.486" height="0.157" transform="translate(0 1.102)"/><rect class="g" width="60.486" height="0.157" transform="translate(0 0.945)"/><rect class="f" width="60.486" height="0.157" transform="translate(0 0.787)"/><rect class="f" width="60.486" height="0.157" transform="translate(0 0.63)"/><rect class="fl" width="60.486" height="0.158" transform="translate(0 0.472)"/><rect class="e" width="60.486" height="0.157" transform="translate(0 0.315)"/><rect class="fm" width="60.486" height="0.158" transform="translate(0 0.157)"/><rect class="d" width="60.486" height="0.157" transform="translate(0 0)"/><rect class="d" width="60.486" height="2.205" transform="translate(0 -2.204)"/></g></g><g transform="translate(15.803 22.132)"><g class="fn"><path class="af" d="M310.41,196.621v0Z" transform="translate(-310.41 -197.343)"/><rect class="af" width="0.116" height="24.703" transform="translate(0 -0.722)"/><rect class="ag" width="0.115" height="24.703" transform="translate(0.116 -0.722)"/><rect class="ah" width="0.116" height="24.703" transform="translate(0.231 -0.722)"/><rect class="ai" width="0.116" height="24.703" transform="translate(0.347 -0.722)"/><rect class="aj" width="0.116" height="24.703" transform="translate(0.463 -0.722)"/><rect class="ak" width="0.116" height="24.703" transform="translate(0.579 -0.722)"/><rect class="al" width="0.116" height="24.703" transform="translate(0.694 -0.722)"/><rect class="am" width="0.116" height="24.703" transform="translate(0.81 -0.722)"/><rect class="an" width="0.116" height="24.703" transform="translate(0.926 -0.722)"/><rect class="ao" width="0.116" height="24.703" transform="translate(1.041 -0.722)"/><rect class="ap" width="0.116" height="24.703" transform="translate(1.157 -0.722)"/><rect class="aq" width="0.116" height="24.703" transform="translate(1.273 -0.722)"/><rect class="ar" width="0.116" height="24.703" transform="translate(1.388 -0.722)"/><rect class="as" width="0.116" height="24.703" transform="translate(1.504 -0.722)"/><rect class="at" width="0.116" height="24.703" transform="translate(1.62 -0.722)"/><rect class="au" width="0.116" height="24.703" transform="translate(1.736 -0.722)"/><rect class="av" width="0.116" height="24.703" transform="translate(1.851 -0.722)"/><rect class="aw" width="0.116" height="24.703" transform="translate(1.967 -0.722)"/><rect class="ax" width="0.115" height="24.703" transform="translate(2.083 -0.722)"/><rect class="ay" width="0.116" height="24.703" transform="translate(2.198 -0.722)"/><rect class="az" width="0.116" height="24.703" transform="translate(2.314 -0.722)"/><rect class="ba" width="0.115" height="24.703" transform="translate(2.43 -0.722)"/><rect class="bb" width="0.116" height="24.703" transform="translate(2.545 -0.722)"/><rect class="bc" width="0.116" height="24.703" transform="translate(2.661 -0.722)"/><rect class="bd" width="0.116" height="24.703" transform="translate(2.777 -0.722)"/><rect class="be" width="0.115" height="24.703" transform="translate(2.893 -0.722)"/><rect class="bf" width="0.116" height="24.703" transform="translate(3.008 -0.722)"/><rect class="bg" width="0.116" height="24.703" transform="translate(3.124 -0.722)"/><rect class="bh" width="0.116" height="24.703" transform="translate(3.24 -0.722)"/><rect class="bi" width="0.116" height="24.703" transform="translate(3.356 -0.722)"/><rect class="bj" width="0.116" height="24.703" transform="translate(3.471 -0.722)"/><rect class="bk" width="0.116" height="24.703" transform="translate(3.587 -0.722)"/><rect class="bk" width="0.116" height="24.703" transform="translate(3.703 -0.722)"/><rect class="bl" width="0.116" height="24.703" transform="translate(3.819 -0.722)"/><rect class="bl" width="0.116" height="24.703" transform="translate(3.934 -0.722)"/><rect class="bm" width="0.116" height="24.703" transform="translate(4.05 -0.722)"/><rect class="bm" width="0.116" height="24.703" transform="translate(4.166 -0.722)"/><rect class="bn" width="0.116" height="24.703" transform="translate(4.281 -0.722)"/><rect class="bn" width="0.116" height="24.703" transform="translate(4.397 -0.722)"/><rect class="bo" width="0.116" height="24.703" transform="translate(4.513 -0.722)"/><rect class="bp" width="0.116" height="24.703" transform="translate(4.628 -0.722)"/><rect class="bp" width="0.116" height="24.703" transform="translate(4.744 -0.722)"/><rect class="bq" width="0.115" height="24.703" transform="translate(4.86 -0.722)"/><rect class="bq" width="0.116" height="24.703" transform="translate(4.976 -0.722)"/><rect class="br" width="0.116" height="24.703" transform="translate(5.091 -0.722)"/><rect class="bs" width="0.115" height="24.703" transform="translate(5.207 -0.722)"/><rect class="bt" width="0.116" height="24.703" transform="translate(5.323 -0.722)"/><rect class="bt" width="0.116" height="24.703" transform="translate(5.438 -0.722)"/><rect class="bu" width="0.115" height="24.703" transform="translate(5.554 -0.722)"/><rect class="bu" width="0.116" height="24.703" transform="translate(5.67 -0.722)"/><rect class="bu" width="0.116" height="24.703" transform="translate(5.786 -0.722)"/><rect class="bv" width="0.116" height="24.703" transform="translate(5.902 -0.722)"/><rect class="bv" width="0.116" height="24.703" transform="translate(6.017 -0.722)"/><rect class="bw" width="0.116" height="24.703" transform="translate(6.133 -0.722)"/><rect class="bw" width="0.116" height="24.703" transform="translate(6.249 -0.722)"/><rect class="bx" width="0.116" height="24.703" transform="translate(6.364 -0.722)"/><rect class="bx" width="0.116" height="24.703" transform="translate(6.48 -0.722)"/><rect class="by" width="0.116" height="24.703" transform="translate(6.596 -0.722)"/><rect class="by" width="0.116" height="24.703" transform="translate(6.711 -0.722)"/><rect class="by" width="0.116" height="24.703" transform="translate(6.827 -0.722)"/><rect class="bz" width="0.116" height="24.703" transform="translate(6.943 -0.722)"/><rect class="bz" width="0.116" height="24.703" transform="translate(7.059 -0.722)"/><rect class="ca" width="0.116" height="24.703" transform="translate(7.174 -0.722)"/><rect class="cb" width="0.116" height="24.703" transform="translate(7.29 -0.722)"/><rect class="cc" width="0.116" height="24.703" transform="translate(7.406 -0.722)"/><rect class="cc" width="0.116" height="24.703" transform="translate(7.521 -0.722)"/><rect class="cc" width="0.116" height="24.703" transform="translate(7.637 -0.722)"/><rect class="cd" width="0.116" height="24.703" transform="translate(7.753 -0.722)"/><rect class="ce" width="0.116" height="24.703" transform="translate(7.869 -0.722)"/><rect class="cf" width="0.115" height="24.703" transform="translate(7.985 -0.722)"/><rect class="cf" width="0.116" height="24.703" transform="translate(8.1 -0.722)"/><rect class="cf" width="0.116" height="24.703" transform="translate(8.216 -0.722)"/><rect class="cg" width="0.115" height="24.703" transform="translate(8.332 -0.722)"/><rect class="cg" width="0.116" height="24.703" transform="translate(8.447 -0.722)"/><rect class="ch" width="0.116" height="24.703" transform="translate(8.563 -0.722)"/><rect class="ch" width="0.116" height="24.703" transform="translate(8.679 -0.722)"/><rect class="ch" width="0.116" height="24.703" transform="translate(8.794 -0.722)"/><rect class="ci" width="0.116" height="24.703" transform="translate(8.91 -0.722)"/><rect class="ci" width="0.116" height="24.703" transform="translate(9.026 -0.722)"/><rect class="cj" width="0.116" height="24.703" transform="translate(9.142 -0.722)"/><rect class="ck" width="0.116" height="24.703" transform="translate(9.257 -0.722)"/><rect class="ck" width="0.116" height="24.703" transform="translate(9.373 -0.722)"/><rect class="cl" width="0.116" height="24.703" transform="translate(9.489 -0.722)"/><rect class="cl" width="0.116" height="24.703" transform="translate(9.604 -0.722)"/><rect class="cm" width="0.116" height="24.703" transform="translate(9.72 -0.722)"/><rect class="cm" width="0.115" height="24.703" transform="translate(9.836 -0.722)"/><rect class="cn" width="0.116" height="24.703" transform="translate(9.951 -0.722)"/><rect class="co" width="0.116" height="24.703" transform="translate(10.067 -0.722)"/><rect class="co" width="0.116" height="24.703" transform="translate(10.183 -0.722)"/><rect class="co" width="0.115" height="24.703" transform="translate(10.299 -0.722)"/><rect class="cp" width="0.116" height="24.703" transform="translate(10.414 -0.722)"/><rect class="cq" width="0.116" height="24.703" transform="translate(10.53 -0.722)"/><rect class="cr" width="0.115" height="24.703" transform="translate(10.646 -0.722)"/><rect class="cr" width="0.116" height="24.703" transform="translate(10.761 -0.722)"/><rect class="cr" width="0.116" height="24.703" transform="translate(10.877 -0.722)"/><rect class="cs" width="0.116" height="24.703" transform="translate(10.993 -0.722)"/><rect class="cs" width="0.116" height="24.703" transform="translate(11.109 -0.722)"/><rect class="ct" width="0.116" height="24.703" transform="translate(11.224 -0.722)"/><rect class="cu" width="0.116" height="24.703" transform="translate(11.34 -0.722)"/><rect class="cu" width="0.116" height="24.703" transform="translate(11.456 -0.722)"/><rect class="cv" width="0.116" height="24.703" transform="translate(11.571 -0.722)"/><rect class="cv" width="0.116" height="24.703" transform="translate(11.687 -0.722)"/><rect class="cw" width="0.116" height="24.703" transform="translate(11.803 -0.722)"/><rect class="cx" width="0.116" height="24.703" transform="translate(11.918 -0.722)"/><rect class="cx" width="0.116" height="24.703" transform="translate(12.034 -0.722)"/><rect class="cx" width="0.116" height="24.703" transform="translate(12.15 -0.722)"/><rect class="cy" width="0.116" height="24.703" transform="translate(12.266 -0.722)"/><rect class="cz" width="0.116" height="24.703" transform="translate(12.381 -0.722)"/><rect class="da" width="0.116" height="24.703" transform="translate(12.497 -0.722)"/><rect class="da" width="0.116" height="24.703" transform="translate(12.613 -0.722)"/><rect class="da" width="0.116" height="24.703" transform="translate(12.728 -0.722)"/><rect class="db" width="0.116" height="24.703" transform="translate(12.844 -0.722)"/><rect class="db" width="0.188" height="24.703" transform="translate(12.96 -0.722)"/><rect class="dc" width="0.188" height="24.703" transform="translate(13.148 -0.722)"/><rect class="dc" width="0.188" height="24.703" transform="translate(13.336 -0.722)"/><rect class="dc" width="0.188" height="24.703" transform="translate(13.525 -0.722)"/><rect class="dd" width="0.188" height="24.703" transform="translate(13.713 -0.722)"/><rect class="dd" width="0.188" height="24.703" transform="translate(13.901 -0.722)"/><rect class="dd" width="0.188" height="24.703" transform="translate(14.089 -0.722)"/><rect class="de" width="0.188" height="24.703" transform="translate(14.278 -0.722)"/><rect class="de" width="0.188" height="24.703" transform="translate(14.466 -0.722)"/><rect class="de" width="0.188" height="24.703" transform="translate(14.654 -0.722)"/><rect class="df" width="0.188" height="24.703" transform="translate(14.842 -0.722)"/><rect class="df" width="0.188" height="24.703" transform="translate(15.031 -0.722)"/><rect class="df" width="0.188" height="24.703" transform="translate(15.219 -0.722)"/><rect class="dg" width="0.188" height="24.703" transform="translate(15.407 -0.722)"/><rect class="dg" width="0.188" height="24.703" transform="translate(15.595 -0.722)"/><rect class="dg" width="0.188" height="24.703" transform="translate(15.784 -0.722)"/><rect class="dh" width="0.188" height="24.703" transform="translate(15.972 -0.722)"/><rect class="di" width="0.188" height="24.703" transform="translate(16.16 -0.722)"/><rect class="di" width="0.188" height="24.703" transform="translate(16.348 -0.722)"/><rect class="dj" width="0.188" height="24.703" transform="translate(16.537 -0.722)"/><rect class="dk" width="0.188" height="24.703" transform="translate(16.725 -0.722)"/><rect class="dl" width="0.188" height="24.703" transform="translate(16.913 -0.722)"/><rect class="dl" width="0.188" height="24.703" transform="translate(17.101 -0.722)"/><rect class="dm" width="0.188" height="24.703" transform="translate(17.289 -0.722)"/><rect class="dn" width="0.188" height="24.703" transform="translate(17.478 -0.722)"/><rect class="dn" width="0.188" height="24.703" transform="translate(17.666 -0.722)"/><rect class="do" width="0.188" height="24.703" transform="translate(17.854 -0.722)"/><rect class="dp" width="0.188" height="24.703" transform="translate(18.042 -0.722)"/><rect class="dp" width="0.188" height="24.703" transform="translate(18.231 -0.722)"/><rect class="dq" width="0.188" height="24.703" transform="translate(18.419 -0.722)"/><rect class="dr" width="0.188" height="24.703" transform="translate(18.607 -0.722)"/><rect class="dr" width="0.188" height="24.703" transform="translate(18.795 -0.722)"/><rect class="ds" width="0.188" height="24.703" transform="translate(18.984 -0.722)"/><rect class="dt" width="0.188" height="24.703" transform="translate(19.172 -0.722)"/><rect class="dt" width="0.188" height="24.703" transform="translate(19.36 -0.722)"/><rect class="du" width="0.188" height="24.703" transform="translate(19.548 -0.722)"/><rect class="du" width="0.188" height="24.703" transform="translate(19.737 -0.722)"/><rect class="du" width="0.188" height="24.703" transform="translate(19.925 -0.722)"/><rect class="dv" width="0.188" height="24.703" transform="translate(20.113 -0.722)"/><rect class="dv" width="0.188" height="24.703" transform="translate(20.301 -0.722)"/><rect class="dv" width="0.188" height="24.703" transform="translate(20.489 -0.722)"/><rect class="dw" width="0.188" height="24.703" transform="translate(20.678 -0.722)"/><rect class="dw" width="0.188" height="24.703" transform="translate(20.866 -0.722)"/><rect class="dx" width="0.188" height="24.703" transform="translate(21.054 -0.722)"/><rect class="dy" width="0.188" height="24.703" transform="translate(21.242 -0.722)"/><rect class="dy" width="0.188" height="24.703" transform="translate(21.431 -0.722)"/><rect class="dz" width="0.188" height="24.703" transform="translate(21.619 -0.722)"/><rect class="dz" width="0.188" height="24.703" transform="translate(21.807 -0.722)"/><rect class="ea" width="0.188" height="24.703" transform="translate(21.995 -0.722)"/><rect class="eb" width="0.188" height="24.703" transform="translate(22.184 -0.722)"/><rect class="eb" width="0.188" height="24.703" transform="translate(22.372 -0.722)"/><rect class="ec" width="0.189" height="24.703" transform="translate(22.56 -0.722)"/><rect class="ed" width="0.188" height="24.703" transform="translate(22.749 -0.722)"/><rect class="ee" width="0.188" height="24.703" transform="translate(22.937 -0.722)"/><rect class="ef" width="0.188" height="24.703" transform="translate(23.125 -0.722)"/><rect class="ef" width="0.188" height="24.703" transform="translate(23.313 -0.722)"/><rect class="eg" width="0.188" height="24.703" transform="translate(23.502 -0.722)"/><rect class="eh" width="0.188" height="24.703" transform="translate(23.69 -0.722)"/><rect class="eh" width="0.188" height="24.703" transform="translate(23.878 -0.722)"/><rect class="ei" width="0.188" height="24.703" transform="translate(24.066 -0.722)"/><rect class="ej" width="0.188" height="24.703" transform="translate(24.255 -0.722)"/><rect class="ek" width="0.188" height="24.703" transform="translate(24.443 -0.722)"/><rect class="ek" width="0.188" height="24.703" transform="translate(24.631 -0.722)"/><rect class="el" width="0.188" height="24.703" transform="translate(24.819 -0.722)"/><rect class="em" width="0.188" height="24.703" transform="translate(25.008 -0.722)"/><rect class="en" width="0.188" height="24.703" transform="translate(25.196 -0.722)"/><rect class="eo" width="0.188" height="24.703" transform="translate(25.384 -0.722)"/><rect class="eo" width="0.188" height="24.703" transform="translate(25.572 -0.722)"/><rect class="ep" width="0.188" height="24.703" transform="translate(25.761 -0.722)"/><rect class="ep" width="0.188" height="24.703" transform="translate(25.949 -0.722)"/><rect class="eq" width="0.188" height="24.703" transform="translate(26.137 -0.722)"/><rect class="er" width="0.188" height="24.703" transform="translate(26.325 -0.722)"/><rect class="er" width="0.188" height="24.703" transform="translate(26.513 -0.722)"/><rect class="es" width="0.188" height="24.703" transform="translate(26.702 -0.722)"/><rect class="es" width="0.188" height="24.703" transform="translate(26.89 -0.722)"/><rect class="et" width="0.188" height="24.703" transform="translate(27.078 -0.722)"/><rect class="eu" width="0.188" height="24.703" transform="translate(27.266 -0.722)"/><rect class="eu" width="0.188" height="24.703" transform="translate(27.455 -0.722)"/><rect class="ev" width="0.188" height="24.703" transform="translate(27.643 -0.722)"/><rect class="ev" width="0.188" height="24.703" transform="translate(27.831 -0.722)"/><rect class="ew" width="0.188" height="24.703" transform="translate(28.019 -0.722)"/><rect class="ew" width="0.188" height="24.703" transform="translate(28.208 -0.722)"/><rect class="ex" width="0.188" height="24.703" transform="translate(28.396 -0.722)"/><rect class="ey" width="0.188" height="24.703" transform="translate(28.584 -0.722)"/><rect class="ey" width="0.188" height="24.703" transform="translate(28.772 -0.722)"/><rect class="ez" width="0.188" height="24.703" transform="translate(28.961 -0.722)"/><rect class="ez" width="0.188" height="24.703" transform="translate(29.149 -0.722)"/><rect class="fa" width="0.188" height="24.703" transform="translate(29.337 -0.722)"/><rect class="fb" width="0.188" height="24.703" transform="translate(29.525 -0.722)"/><rect class="fc" width="0.188" height="24.703" transform="translate(29.713 -0.722)"/><rect class="fd" width="0.188" height="24.703" transform="translate(29.902 -0.722)"/><rect class="fd" width="0.188" height="24.703" transform="translate(30.09 -0.722)"/><rect class="fe" width="0.188" height="24.703" transform="translate(30.278 -0.722)"/><rect class="fe" width="0.188" height="24.703" transform="translate(30.466 -0.722)"/><rect class="ff" width="0.188" height="24.703" transform="translate(30.655 -0.722)"/><rect class="ff" width="0.188" height="24.703" transform="translate(30.843 -0.722)"/><rect class="fg" width="0.188" height="24.703" transform="translate(31.031 -0.722)"/><rect class="fh" width="0.188" height="24.703" transform="translate(31.219 -0.722)"/><rect class="fh" width="0.188" height="24.703" transform="translate(31.408 -0.722)"/><rect class="v" width="0.188" height="24.703" transform="translate(31.596 -0.722)"/><rect class="v" width="0.188" height="24.703" transform="translate(31.784 -0.722)"/><rect class="t" width="0.188" height="24.703" transform="translate(31.972 -0.722)"/><rect class="t" width="0.188" height="24.703" transform="translate(32.161 -0.722)"/><rect class="fi" width="0.188" height="24.703" transform="translate(32.349 -0.722)"/><rect class="fi" width="0.188" height="24.703" transform="translate(32.537 -0.722)"/><rect class="fj" width="0.188" height="24.703" transform="translate(32.725 -0.722)"/><rect class="fj" width="0.188" height="24.703" transform="translate(32.914 -0.722)"/><rect class="q" width="0.188" height="24.703" transform="translate(33.102 -0.722)"/><rect class="fk" width="0.188" height="24.703" transform="translate(33.29 -0.722)"/><rect class="fk" width="0.188" height="24.703" transform="translate(33.478 -0.722)"/><rect class="o" width="0.188" height="24.703" transform="translate(33.667 -0.722)"/><rect class="o" width="0.188" height="24.703" transform="translate(33.855 -0.722)"/><rect class="m" width="0.188" height="24.703" transform="translate(34.043 -0.722)"/><rect class="m" width="0.188" height="24.703" transform="translate(34.231 -0.722)"/><rect class="k" width="0.188" height="24.703" transform="translate(34.42 -0.722)"/><rect class="k" width="0.188" height="24.703" transform="translate(34.608 -0.722)"/><rect class="i" width="0.188" height="24.703" transform="translate(34.796 -0.722)"/><rect class="i" width="0.188" height="24.703" transform="translate(34.984 -0.722)"/><rect class="h" width="0.188" height="24.703" transform="translate(35.172 -0.722)"/><rect class="h" width="0.188" height="24.703" transform="translate(35.361 -0.722)"/><rect class="g" width="0.188" height="24.703" transform="translate(35.549 -0.722)"/><rect class="g" width="0.188" height="24.703" transform="translate(35.737 -0.722)"/><rect class="f" width="0.188" height="24.703" transform="translate(35.925 -0.722)"/><rect class="f" width="0.188" height="24.703" transform="translate(36.114 -0.722)"/><rect class="fl" width="0.188" height="24.703" transform="translate(36.302 -0.722)"/><rect class="e" width="0.188" height="24.703" transform="translate(36.49 -0.722)"/><rect class="fm" width="0.188" height="24.703" transform="translate(36.678 -0.722)"/><rect class="d" width="0.188" height="24.703" transform="translate(36.867 -0.722)"/><path class="d" d="M379.95,221.324v0Z" transform="translate(-342.895 -197.343)"/></g></g><g transform="translate(31.241 46.113)"><g class="fo"><path class="af" d="M339.383,242.981v0Z" transform="translate(-339.383 -242.981)"/><rect class="af" width="0.043" height="15.985" transform="translate(0 0)"/><rect class="ag" width="0.043" height="15.985" transform="translate(0.043 0)"/><rect class="ah" width="0.042" height="15.985" transform="translate(0.086 0)"/><rect class="ai" width="0.043" height="15.985" transform="translate(0.128 0)"/><rect class="aj" width="0.043" height="15.985" transform="translate(0.17 0)"/><rect class="ak" width="0.043" height="15.985" transform="translate(0.213 0)"/><rect class="al" width="0.042" height="15.985" transform="translate(0.256 0)"/><rect class="am" width="0.043" height="15.985" transform="translate(0.298 0)"/><rect class="an" width="0.042" height="15.985" transform="translate(0.341 0)"/><rect class="ao" width="0.043" height="15.985" transform="translate(0.383 0)"/><rect class="ap" width="0.043" height="15.985" transform="translate(0.426 0)"/><rect class="aq" width="0.043" height="15.985" transform="translate(0.468 0)"/><rect class="ar" width="0.042" height="15.985" transform="translate(0.511 0)"/><rect class="as" width="0.043" height="15.985" transform="translate(0.553 0)"/><rect class="at" width="0.042" height="15.985" transform="translate(0.596 0)"/><rect class="au" width="0.043" height="15.985" transform="translate(0.638 0)"/><rect class="av" width="0.043" height="15.985" transform="translate(0.681 0)"/><rect class="aw" width="0.043" height="15.985" transform="translate(0.723 0)"/><rect class="ax" width="0.042" height="15.985" transform="translate(0.766 0)"/><rect class="ay" width="0.043" height="15.985" transform="translate(0.809 0)"/><rect class="az" width="0.042" height="15.985" transform="translate(0.851 0)"/><rect class="ba" width="0.043" height="15.985" transform="translate(0.893 0)"/><rect class="bb" width="0.043" height="15.985" transform="translate(0.936 0)"/><rect class="bc" width="0.043" height="15.985" transform="translate(0.979 0)"/><rect class="bd" width="0.043" height="15.985" transform="translate(1.021 0)"/><rect class="be" width="0.042" height="15.985" transform="translate(1.064 0)"/><rect class="bf" width="0.042" height="15.985" transform="translate(1.106 0)"/><rect class="bg" width="0.042" height="15.985" transform="translate(1.149 0)"/><rect class="bh" width="0.043" height="15.985" transform="translate(1.191 0)"/><rect class="bi" width="0.043" height="15.985" transform="translate(1.234 0)"/><rect class="bj" width="0.043" height="15.985" transform="translate(1.277 0)"/><rect class="bk" width="0.042" height="15.985" transform="translate(1.319 0)"/><rect class="bk" width="0.043" height="15.985" transform="translate(1.361 0)"/><rect class="bl" width="0.042" height="15.985" transform="translate(1.404 0)"/><rect class="bl" width="0.043" height="15.985" transform="translate(1.447 0)"/><rect class="bm" width="0.043" height="15.985" transform="translate(1.489 0)"/><rect class="bm" width="0.043" height="15.985" transform="translate(1.532 0)"/><rect class="bn" width="0.042" height="15.985" transform="translate(1.575 0)"/><rect class="bn" width="0.043" height="15.985" transform="translate(1.617 0)"/><rect class="bo" width="0.042" height="15.985" transform="translate(1.659 0)"/><rect class="bp" width="0.043" height="15.985" transform="translate(1.702 0)"/><rect class="bp" width="0.043" height="15.985" transform="translate(1.744 0)"/><rect class="bq" width="0.043" height="15.985" transform="translate(1.787 0)"/><rect class="bq" width="0.042" height="15.985" transform="translate(1.83 0)"/><rect class="br" width="0.043" height="15.985" transform="translate(1.872 0)"/><rect class="bs" width="0.042" height="15.985" transform="translate(1.915 0)"/><rect class="bt" width="0.043" height="15.985" transform="translate(1.957 0)"/><rect class="bt" width="0.043" height="15.985" transform="translate(2 0)"/><rect class="bu" width="0.043" height="15.985" transform="translate(2.042 0)"/><rect class="bu" width="0.042" height="15.985" transform="translate(2.085 0)"/><rect class="bu" width="0.043" height="15.985" transform="translate(2.127 0)"/><rect class="bv" width="0.043" height="15.985" transform="translate(2.17 0)"/><rect class="bv" width="0.042" height="15.985" transform="translate(2.213 0)"/><rect class="bw" width="0.043" height="15.985" transform="translate(2.255 0)"/><rect class="bw" width="0.043" height="15.985" transform="translate(2.298 0)"/><rect class="bx" width="0.042" height="15.985" transform="translate(2.34 0)"/><rect class="bx" width="0.043" height="15.985" transform="translate(2.382 0)"/><rect class="by" width="0.043" height="15.985" transform="translate(2.425 0)"/><rect class="by" width="0.042" height="15.985" transform="translate(2.468 0)"/><rect class="by" width="0.043" height="15.985" transform="translate(2.51 0)"/><rect class="bz" width="0.042" height="15.985" transform="translate(2.553 0)"/><rect class="bz" width="0.043" height="15.985" transform="translate(2.595 0)"/><rect class="ca" width="0.043" height="15.985" transform="translate(2.638 0)"/><rect class="cb" width="0.043" height="15.985" transform="translate(2.68 0)"/><rect class="cc" width="0.042" height="15.985" transform="translate(2.723 0)"/><rect class="cc" width="0.043" height="15.985" transform="translate(2.765 0)"/><rect class="cc" width="0.042" height="15.985" transform="translate(2.808 0)"/><rect class="cd" width="0.043" height="15.985" transform="translate(2.85 0)"/><rect class="ce" width="0.043" height="15.985" transform="translate(2.893 0)"/><rect class="cf" width="0.043" height="15.985" transform="translate(2.936 0)"/><rect class="cf" width="0.042" height="15.985" transform="translate(2.978 0)"/><rect class="cf" width="0.043" height="15.985" transform="translate(3.021 0)"/><rect class="cg" width="0.042" height="15.985" transform="translate(3.063 0)"/><rect class="cg" width="0.043" height="15.985" transform="translate(3.105 0)"/><rect class="ch" width="0.043" height="15.985" transform="translate(3.148 0)"/><rect class="ch" width="0.043" height="15.985" transform="translate(3.191 0)"/><rect class="ch" width="0.043" height="15.985" transform="translate(3.233 0)"/><rect class="ci" width="0.042" height="15.985" transform="translate(3.276 0)"/><rect class="ci" width="0.042" height="15.985" transform="translate(3.318 0)"/><rect class="cj" width="0.042" height="15.985" transform="translate(3.361 0)"/><rect class="ck" width="0.043" height="15.985" transform="translate(3.403 0)"/><rect class="ck" width="0.043" height="15.985" transform="translate(3.446 0)"/><rect class="cl" width="0.043" height="15.985" transform="translate(3.489 0)"/><rect class="cl" width="0.042" height="15.985" transform="translate(3.531 0)"/><rect class="cm" width="0.042" height="15.985" transform="translate(3.574 0)"/><rect class="cm" width="0.042" height="15.985" transform="translate(3.616 0)"/><rect class="cn" width="0.043" height="15.985" transform="translate(3.659 0)"/><rect class="co" width="0.043" height="15.985" transform="translate(3.701 0)"/><rect class="co" width="0.043" height="15.985" transform="translate(3.744 0)"/><rect class="co" width="0.042" height="15.985" transform="translate(3.787 0)"/><rect class="cp" width="0.043" height="15.985" transform="translate(3.829 0)"/><rect class="cq" width="0.042" height="15.985" transform="translate(3.871 0)"/><rect class="cr" width="0.043" height="15.985" transform="translate(3.914 0)"/><rect class="cr" width="0.043" height="15.985" transform="translate(3.956 0)"/><rect class="cr" width="0.043" height="15.985" transform="translate(3.999 0)"/><rect class="cs" width="0.042" height="15.985" transform="translate(4.042 0)"/><rect class="cs" width="0.043" height="15.985" transform="translate(4.084 0)"/><rect class="ct" width="0.042" height="15.985" transform="translate(4.127 0)"/><rect class="cu" width="0.043" height="15.985" transform="translate(4.169 0)"/><rect class="cu" width="0.043" height="15.985" transform="translate(4.212 0)"/><rect class="cv" width="0.043" height="15.985" transform="translate(4.254 0)"/><rect class="cv" width="0.042" height="15.985" transform="translate(4.297 0)"/><rect class="cw" width="0.043" height="15.985" transform="translate(4.339 0)"/><rect class="cx" width="0.043" height="15.985" transform="translate(4.382 0)"/><rect class="cx" width="0.042" height="15.985" transform="translate(4.425 0)"/><rect class="cx" width="0.043" height="15.985" transform="translate(4.467 0)"/><rect class="cy" width="0.043" height="15.985" transform="translate(4.51 0)"/><rect class="cz" width="0.042" height="15.985" transform="translate(4.552 0)"/><rect class="da" width="0.043" height="15.985" transform="translate(4.594 0)"/><rect class="da" width="0.043" height="15.985" transform="translate(4.637 0)"/><rect class="da" width="0.042" height="15.985" transform="translate(4.68 0)"/><rect class="db" width="0.043" height="15.985" transform="translate(4.722 0)"/><rect class="db" width="0.069" height="15.985" transform="translate(4.765 0)"/><rect class="dc" width="0.069" height="15.985" transform="translate(4.834 0)"/><rect class="dc" width="0.069" height="15.985" transform="translate(4.904 0)"/><rect class="dc" width="0.069" height="15.985" transform="translate(4.972 0)"/><rect class="dd" width="0.069" height="15.985" transform="translate(5.042 0)"/><rect class="dd" width="0.069" height="15.985" transform="translate(5.111 0)"/><rect class="dd" width="0.069" height="15.985" transform="translate(5.18 0)"/><rect class="de" width="0.069" height="15.985" transform="translate(5.249 0)"/><rect class="de" width="0.069" height="15.985" transform="translate(5.319 0)"/><rect class="de" width="0.069" height="15.985" transform="translate(5.388 0)"/><rect class="df" width="0.069" height="15.985" transform="translate(5.457 0)"/><rect class="df" width="0.069" height="15.985" transform="translate(5.526 0)"/><rect class="df" width="0.07" height="15.985" transform="translate(5.595 0)"/><rect class="dg" width="0.069" height="15.985" transform="translate(5.665 0)"/><rect class="dg" width="0.069" height="15.985" transform="translate(5.734 0)"/><rect class="dg" width="0.069" height="15.985" transform="translate(5.803 0)"/><rect class="dh" width="0.069" height="15.985" transform="translate(5.872 0)"/><rect class="di" width="0.069" height="15.985" transform="translate(5.941 0)"/><rect class="di" width="0.069" height="15.985" transform="translate(6.011 0)"/><rect class="dj" width="0.07" height="15.985" transform="translate(6.08 0)"/><rect class="dk" width="0.069" height="15.985" transform="translate(6.149 0)"/><rect class="dl" width="0.069" height="15.985" transform="translate(6.218 0)"/><rect class="dl" width="0.069" height="15.985" transform="translate(6.287 0)"/><rect class="dm" width="0.069" height="15.985" transform="translate(6.356 0)"/><rect class="dn" width="0.069" height="15.985" transform="translate(6.426 0)"/><rect class="dn" width="0.069" height="15.985" transform="translate(6.495 0)"/><rect class="do" width="0.069" height="15.985" transform="translate(6.564 0)"/><rect class="dp" width="0.069" height="15.985" transform="translate(6.633 0)"/><rect class="dp" width="0.069" height="15.985" transform="translate(6.703 0)"/><rect class="dq" width="0.069" height="15.985" transform="translate(6.772 0)"/><rect class="dr" width="0.069" height="15.985" transform="translate(6.841 0)"/><rect class="dr" width="0.069" height="15.985" transform="translate(6.91 0)"/><rect class="ds" width="0.069" height="15.985" transform="translate(6.98 0)"/><rect class="dt" width="0.069" height="15.985" transform="translate(7.048 0)"/><rect class="dt" width="0.069" height="15.985" transform="translate(7.118 0)"/><rect class="du" width="0.069" height="15.985" transform="translate(7.187 0)"/><rect class="du" width="0.069" height="15.985" transform="translate(7.256 0)"/><rect class="du" width="0.069" height="15.985" transform="translate(7.325 0)"/><rect class="dv" width="0.069" height="15.985" transform="translate(7.395 0)"/><rect class="dv" width="0.069" height="15.985" transform="translate(7.464 0)"/><rect class="dv" width="0.069" height="15.985" transform="translate(7.533 0)"/><rect class="dw" width="0.069" height="15.985" transform="translate(7.602 0)"/><rect class="dw" width="0.069" height="15.985" transform="translate(7.672 0)"/><rect class="dx" width="0.069" height="15.985" transform="translate(7.741 0)"/><rect class="dy" width="0.069" height="15.985" transform="translate(7.81 0)"/><rect class="dy" width="0.069" height="15.985" transform="translate(7.879 0)"/><rect class="dz" width="0.069" height="15.985" transform="translate(7.948 0)"/><rect class="dz" width="0.069" height="15.985" transform="translate(8.017 0)"/><rect class="ea" width="0.069" height="15.985" transform="translate(8.087 0)"/><rect class="eb" width="0.069" height="15.985" transform="translate(8.156 0)"/><rect class="eb" width="0.069" height="15.985" transform="translate(8.225 0)"/><rect class="ec" width="0.069" height="15.985" transform="translate(8.294 0)"/><rect class="ed" width="0.069" height="15.985" transform="translate(8.363 0)"/><rect class="ee" width="0.069" height="15.985" transform="translate(8.433 0)"/><rect class="ef" width="0.069" height="15.985" transform="translate(8.502 0)"/><rect class="ef" width="0.069" height="15.985" transform="translate(8.571 0)"/><rect class="eg" width="0.069" height="15.985" transform="translate(8.64 0)"/><rect class="eh" width="0.069" height="15.985" transform="translate(8.709 0)"/><rect class="eh" width="0.069" height="15.985" transform="translate(8.779 0)"/><rect class="ei" width="0.07" height="15.985" transform="translate(8.848 0)"/><rect class="ej" width="0.069" height="15.985" transform="translate(8.917 0)"/><rect class="ek" width="0.069" height="15.985" transform="translate(8.986 0)"/><rect class="ek" width="0.069" height="15.985" transform="translate(9.055 0)"/><rect class="el" width="0.069" height="15.985" transform="translate(9.124 0)"/><rect class="em" width="0.069" height="15.985" transform="translate(9.194 0)"/><rect class="en" width="0.069" height="15.985" transform="translate(9.263 0)"/><rect class="eo" width="0.069" height="15.985" transform="translate(9.332 0)"/><rect class="eo" width="0.069" height="15.985" transform="translate(9.401 0)"/><rect class="ep" width="0.069" height="15.985" transform="translate(9.471 0)"/><rect class="ep" width="0.069" height="15.985" transform="translate(9.54 0)"/><rect class="eq" width="0.069" height="15.985" transform="translate(9.609 0)"/><rect class="er" width="0.069" height="15.985" transform="translate(9.678 0)"/><rect class="er" width="0.069" height="15.985" transform="translate(9.748 0)"/><rect class="es" width="0.069" height="15.985" transform="translate(9.817 0)"/><rect class="es" width="0.069" height="15.985" transform="translate(9.886 0)"/><rect class="et" width="0.069" height="15.985" transform="translate(9.955 0)"/><rect class="eu" width="0.069" height="15.985" transform="translate(10.024 0)"/><rect class="eu" width="0.069" height="15.985" transform="translate(10.093 0)"/><rect class="ev" width="0.069" height="15.985" transform="translate(10.163 0)"/><rect class="ev" width="0.069" height="15.985" transform="translate(10.232 0)"/><rect class="ew" width="0.069" height="15.985" transform="translate(10.301 0)"/><rect class="ew" width="0.069" height="15.985" transform="translate(10.37 0)"/><rect class="ex" width="0.069" height="15.985" transform="translate(10.44 0)"/><rect class="ey" width="0.069" height="15.985" transform="translate(10.509 0)"/><rect class="ey" width="0.069" height="15.985" transform="translate(10.578 0)"/><rect class="ez" width="0.069" height="15.985" transform="translate(10.647 0)"/><rect class="ez" width="0.069" height="15.985" transform="translate(10.717 0)"/><rect class="fa" width="0.069" height="15.985" transform="translate(10.785 0)"/><rect class="fb" width="0.069" height="15.985" transform="translate(10.855 0)"/><rect class="fc" width="0.069" height="15.985" transform="translate(10.924 0)"/><rect class="fd" width="0.069" height="15.985" transform="translate(10.993 0)"/><rect class="fd" width="0.069" height="15.985" transform="translate(11.062 0)"/><rect class="fe" width="0.069" height="15.985" transform="translate(11.131 0)"/><rect class="fe" width="0.069" height="15.985" transform="translate(11.201 0)"/><rect class="ff" width="0.069" height="15.985" transform="translate(11.27 0)"/><rect class="ff" width="0.069" height="15.985" transform="translate(11.339 0)"/><rect class="fg" width="0.07" height="15.985" transform="translate(11.408 0)"/><rect class="fh" width="0.069" height="15.985" transform="translate(11.478 0)"/><rect class="fh" width="0.069" height="15.985" transform="translate(11.547 0)"/><rect class="v" width="0.069" height="15.985" transform="translate(11.616 0)"/><rect class="v" width="0.069" height="15.985" transform="translate(11.685 0)"/><rect class="t" width="0.069" height="15.985" transform="translate(11.754 0)"/><rect class="t" width="0.069" height="15.985" transform="translate(11.824 0)"/><rect class="fi" width="0.069" height="15.985" transform="translate(11.893 0)"/><rect class="fi" width="0.069" height="15.985" transform="translate(11.962 0)"/><rect class="fj" width="0.069" height="15.985" transform="translate(12.031 0)"/><rect class="fj" width="0.069" height="15.985" transform="translate(12.1 0)"/><rect class="q" width="0.069" height="15.985" transform="translate(12.17 0)"/><rect class="fk" width="0.069" height="15.985" transform="translate(12.239 0)"/><rect class="fk" width="0.069" height="15.985" transform="translate(12.308 0)"/><rect class="o" width="0.069" height="15.985" transform="translate(12.377 0)"/><rect class="o" width="0.069" height="15.985" transform="translate(12.446 0)"/><rect class="m" width="0.069" height="15.985" transform="translate(12.516 0)"/><rect class="m" width="0.069" height="15.985" transform="translate(12.585 0)"/><rect class="k" width="0.069" height="15.985" transform="translate(12.654 0)"/><rect class="k" width="0.069" height="15.985" transform="translate(12.723 0)"/><rect class="i" width="0.069" height="15.985" transform="translate(12.793 0)"/><rect class="i" width="0.069" height="15.985" transform="translate(12.861 0)"/><rect class="h" width="0.069" height="15.985" transform="translate(12.931 0)"/><rect class="h" width="0.069" height="15.985" transform="translate(13 0)"/><rect class="g" width="0.069" height="15.985" transform="translate(13.069 0)"/><rect class="g" width="0.069" height="15.985" transform="translate(13.138 0)"/><rect class="f" width="0.069" height="15.985" transform="translate(13.208 0)"/><rect class="f" width="0.069" height="15.985" transform="translate(13.277 0)"/><rect class="fl" width="0.069" height="15.985" transform="translate(13.346 0)"/><rect class="e" width="0.069" height="15.985" transform="translate(13.415 0)"/><rect class="fm" width="0.069" height="15.985" transform="translate(13.485 0)"/><rect class="d" width="0.069" height="15.985" transform="translate(13.554 0)"/><path class="d" d="M364.949,258.966v0Z" transform="translate(-351.326 -242.981)"/></g></g></g><g transform="translate(277.184 143.118)"><path class="fp" d="M377.277,185.207l-9.609,1.324c6.024-21.111,23.232-31.345,39.551-43.413,0,2.391.1,4.147-.018,5.885-.73,10.284-1.629,20.557-2.174,30.85a11.121,11.121,0,0,0,1.8,6.02,80.532,80.532,0,0,0,6.85,9.111c1.482,1.758,1.245,3.281.768,5.367-1.862,8.147-5.954,13.721-13.786,17.82-10.021,5.244-15.659,14.99-19.329,25.554-1,2.893-2.365,3.713-5.259,3.592-5.145-.214-10.31.071-15.463-.04-1.851-.039-4.748-.031-5.327-1.071-1.485-2.659-3.255-6.231-2.586-8.844,4.746-18.51,10.909-36.472,24.209-50.97C377.051,186.234,377.053,185.947,377.277,185.207Zm-16.446,42.412,6.774,10.1,6.794-10.1Zm14.318-26.673c10.187,2.56,14.87.184,16.473-8.209Z" transform="translate(-352.553 -143.118)"/></g></g></svg>